<?xml version="1.0" encoding="utf-8"?>
<!-- Generator: Adobe Illustrator 27.5.0, SVG Export Plug-In . SVG Version: 6.00 Build 0)  -->
<svg version="1.1" xmlns="http://www.w3.org/2000/svg" xmlns:xlink="http://www.w3.org/1999/xlink" x="0px" y="0px"
	 viewBox="0 0 750 500" style="enable-background:new 0 0 750 500;" xml:space="preserve">
<g id="BACKGROUND">
	<g>
		<rect style="fill:#FFFFFF;" width="750" height="500"/>
		<g>
			<path style="opacity:0.14;fill:#C6A267;" d="M750,0v485.21H0V0h125.03c0.3,1.4,0.46,2.86,0.46,4.36c0,0.8-0.05,1.59-0.14,2.37
				c11.98,2.06,21.09,12.49,21.09,25.06c0,7.27-3.05,13.81-7.93,18.45c5.58,2.73,9.64,8.04,10.66,14.38c2.58-0.91,5.35-1.4,8.25-1.4
				c3.68,0,7.17,0.8,10.32,2.23c9.14-12.82,24.11-21.19,41.05-21.19c26.58,0,48.34,20.59,50.23,46.68
				c15.05,3.27,26.43,16.37,27.05,32.25c11.27,1,20.57,8.8,23.78,19.27c2.04-0.91,4.3-1.43,6.69-1.43c2.08,0,4.07,0.4,5.91,1.11
				c6.73-21.46,26.77-37.02,50.45-37.02c25.01,0,45.94,17.36,51.45,40.68c3.94-1.78,8.3-2.77,12.9-2.77
				c8.35,0,15.94,3.26,21.57,8.58c1.2-12.1,11.41-21.55,23.82-21.55c2.46,0,4.84,0.37,7.08,1.06c1.25-18.43,16.58-32.99,35.32-32.99
				c1.41,0,2.79,0.09,4.16,0.25c0.15-0.81,0.33-1.61,0.53-2.41c2.1-21.74,20.41-38.74,42.7-38.74c1.28,0,2.55,0.07,3.8,0.18
				c2.66-11.02,11.62-19.57,22.85-21.64c-1.74-4.48-2.71-9.35-2.71-14.45c0-7.84,2.26-15.15,6.16-21.32H750z"/>
			<g>
				<path style="fill:#F9ECE4;" d="M750,47.13v406.49H0V60.57c5.57,10.03,7.96,23.64,3.86,42.09c10.14-2.41,21.59,4.14,24.64,14.1
					c8.95-12.56,24.63-21.56,39.67-18.17c15.04,3.4,25.63,22.57,17.15,35.45c17.13-6.49,38.67,5.52,42.15,23.5
					c15.19-6.98,34.85-2.37,45.35,10.64c10.51,13.01,10.87,33.19,0.84,46.57c12.08,0.01,23.77,7.92,28.27,19.13
					c8.2-15.55,28.2-23.73,44.95-18.4s28.33,23.57,26.04,41c11.45-5.31,26.87,4.17,27.29,16.8c9.21-8.59,24.83-9.14,34.61-1.21
					c9.79,7.92,12.51,23.31,6.02,34.11c10.9,1.57,20.57,9.7,23.99,20.16c12.87-15.55,42.59-9.87,48.82,9.34
					c5.93-16.92,21.43-30.11,39.08-33.24c-4.07-13.33,0-28.8,10.1-38.4c10.1-9.61,25.75-12.89,38.86-8.15
					c-3.83-23.07,14.16-47.48,37.33-50.64c-4.75-9.21,3.59-22.13,13.94-21.59c-13.23-22.8-3.35-55.83,20.23-67.61
					s55.94,0.15,66.22,24.42c10.32-19.84,36.29-29.89,57.27-22.16C702.36,88.11,723.14,61.83,750,47.13z"/>
			</g>
		</g>
	</g>
</g>
<g id="OBJECTS">
	<path style="fill:#F4E7DA;" d="M200.993,15.117c6.53-1.507,20.593,10.046,19.087,14.566
		C218.572,34.203,194.463,16.624,200.993,15.117z"/>
	<g>
		<path style="fill:#F8E6C3;" d="M750,254.57v128.62l-220.75,37.66L0,471.6V328.19c20.43-6.86,41.14-12.39,53-11.58
			c29.26,2,62.52,35.92,98.43,28.6c35.92-7.32,79.81-29.26,99.76-27.27c19.96,2,69.84,45.89,83.14,41.24
			c13.3-4.66,13.97-15.3,27.93-15.3c13.97,0,20.62,11.97,47.22,6.65c26.61-5.32,67.84-47.22,101.1-42.56
			c33.25,4.65,55.86,34.58,91.78,28.59C633.14,331.43,711.81,266.68,750,254.57z"/>
		<path style="opacity:0.41;fill:#D7B069;" d="M750,357.22v140.97l-1.81,1.81H0V350.37c43.48-9.23,128.99-27.52,139.46-26.77
			c13.97,0.99,67.84,48.88,98.76,48.88c30.93,0,32.93-9.98,49.89-6.98c16.95,2.99,34.91,10.97,46.88,7.98
			c11.97-3,69.84-39.91,85.8-39.91c15.96,0,36.91,14.97,64.84,11.97c27.94-2.99,100.76-49.88,118.72-46.89
			C614.18,300.29,686.54,330.35,750,357.22z"/>
	</g>
	<path style="fill:#F8E8DA;" d="M623.633,172.311c0,1.679-1.361,3.04-3.04,3.04c-1.679,0-3.04-1.361-3.04-3.04
		c0-1.679,1.361-3.04,3.04-3.04C622.272,169.271,623.633,170.632,623.633,172.311z"/>
	<circle style="fill:#F8E8DA;" cx="24.815" cy="35.09" r="8.251"/>
	<path style="fill:#F8E8DA;" d="M539.197,278.245c0,3.015-2.444,5.459-5.459,5.459s-5.459-2.444-5.459-5.459
		s2.444-5.459,5.459-5.459S539.197,275.231,539.197,278.245z"/>
	<path style="opacity:0.34;fill:#693D3D;" d="M694.062,235.083c2.229,3.623,6.688,33.162,4.18,32.883
		C695.734,267.688,691.833,231.461,694.062,235.083z"/>
	<g>
		<path style="fill:#DD954E;" d="M271.61,24.81l-47.16,29.58L186.59,123c0,0-18.33,313.27-11.22,322.31l-30.94-2.99
			c0,0,29.23-356.06,34.63-393.16c0,0-20.33-32.33-29.61-49.16h3.98c8.48,14.53,23.95,40.44,27.21,41.8l1.66-39.78l3.6,0.34
			l0.3,45.79l14.61-19.65l3.81,1.82L187.9,53.04l-6.11,63.32l53.96-92.48l2.84,0.64l-12.93,24.9L271.61,24.81z"/>
		<g>
			<path style="fill:#DD954E;" d="M596.399,147.319l-10.462-28.023l1.658-0.564c0,0,11.089,29.235,11.089,27.017
				s-5.645-54.235-5.645-54.235h2.016c0,0,7.258,54.235,7.46,53.227s5.847-17.742,5.847-17.742l1.613,0.403l-5.444,22.581
				l1.411,19.96l14.315-33.065h2.016l-14.113,38.307l36.517,240.383l-21.372,0.806L596.399,147.319z"/>
		</g>
		<g>
			<path style="fill:#DD954E;" d="M0,373.15v53.936h750v-41.548c-33.294,0.353-148.88,1.447-172.073-0.099
				c-27.162-1.811-23.54-8.148-50.702-9.959c-27.162-1.811-54.323,17.202-70.62,19.918c-16.297,2.716-22.635-6.338-49.796-10.865
				c-27.162-4.527-64.282,5.432-93.255,6.338c-28.972,0.905-110.457-12.675-143.956-19.918c-33.499-7.243-35.31,1.811-61.566,2.716
				c-26.256,0.905-33.499-10.865-65.188-10.865C27.505,362.804,11.964,367.896,0,373.15z"/>
			<g>
				<path style="fill:#6A4232;" d="M743.381,381.653c-52.966-10.186-182.327,29.539-210.847,26.483
					c-28.52-3.056-55.004,6.112-86.58,6.112c-31.576,0-100.84-42.781-172.141-42.781c-71.301,0-113.063,20.372-169.085,28.52
					C72.272,404.708,29.904,405.668,0,405.641V500h750V382.987C747.709,382.508,745.492,382.059,743.381,381.653z"/>
				<path style="opacity:0.17;fill:#6A4232;" d="M750,417.32V500H0v-60.03c29.9,0.03,72.27-0.93,104.73-5.65
					c56.02-8.15,97.78-28.52,169.08-28.52s140.57,42.78,172.14,42.78c31.58,0,58.06-9.17,86.58-6.12
					c28.52,3.06,157.88-36.66,210.85-26.48C745.49,416.39,747.71,416.84,750,417.32z"/>
			</g>
		</g>
		<g>
			<defs>
				<rect id="SVGID_1_" x="460.426" width="289.574" height="500"/>
			</defs>
			<clipPath id="SVGID_00000157295530683299664090000002208080512035681413_">
				<use xlink:href="#SVGID_1_"  style="overflow:visible;"/>
			</clipPath>
			<g style="clip-path:url(#SVGID_00000157295530683299664090000002208080512035681413_);">
				<path style="fill:#DD954E;" d="M489.596-26.807c0.903,3.044,2.711,5.814,5.135,7.865c-5.317-0.813-10.995,2.188-13.318,7.039
					c1.801,2.778,4.947,4.639,8.249,4.879c-7.278-0.889-14.879,3.587-17.632,10.382c-0.472,1.166-0.805,2.518-0.263,3.652
					c1.126,2.355,4.732,1.748,6.827,0.19c2.095-1.558,4.083-3.808,6.692-3.713c-3.029,4.427,2.331,10.959,7.636,10.166
					c5.305-0.794,8.757-6.48,8.882-11.843c1.228,3.724,6.68,4.614,9.818,2.263c3.138-2.351,4.154-6.689,3.806-10.594
					c6.259,2.903,14.442,0.741,18.451-4.875c2.289,6.973,8.722,12.404,15.98,13.492c-4.197,1.715-7.418,5.633-8.29,10.081
					c-2.873-1.668-6.241-3.39-9.364-2.257c-3.123,1.133-3.84,6.747-0.567,7.313c-4.113-0.917-8.773-0.605-12.036,2.063
					c-3.262,2.668-4.318,8.13-1.389,11.16c2.544,2.632,6.999,2.486,10.167,0.653c3.168-1.833,5.342-4.955,7.375-7.999
					c1.501,4.932,8.828,6.781,12.489,3.152c-0.546,3.307,2.107,6.468,5.239,7.666c3.131,1.198,6.607,0.91,9.946,0.605
					c-3.307,6.038-1.49,14.386,4.027,18.504c-4.95,2.774-7.369,9.359-5.393,14.678c-3.909-2.637-9.493,2.59-8.238,7.135
					c1.254,4.545,6.755,6.791,11.41,6.045s8.624-3.673,12.388-6.513c-2.476,3.687-1.768,9.164,1.562,12.102
					c3.33,2.938,8.853,2.955,12.202,0.039c-0.93,4.383,2.545,9.179,7,9.66c-4.529,6.241-2.853,16.08,3.488,20.468
					c6.34,4.389,16.139,2.492,20.385-3.944c1.484,5.019,6.275,8.878,11.495,9.259c5.22,0.381,10.52-2.743,12.716-7.493
					c0.943,5.285,8.651,7.773,12.506,4.037c0.915,5.862,5.873,10.865,11.727,11.834c5.854,0.969,12.159-2.17,14.914-7.425
					c0.23,6.009,4.417,11.675,10.093,13.659c5.676,1.985,12.481,0.162,16.405-4.394c3.012,11.436,17.118,16.877,28.702,14.498
					c11.584-2.379,21.105-10.338,30.09-18.027v-175.75H490.075L489.596-26.807z"/>
			</g>
			<path style="clip-path:url(#SVGID_00000157295530683299664090000002208080512035681413_);fill:#BB6644;" d="M626.211-4.682
				l-3.802-0.997c0,0,8.117,79.745,7.619,77.604c-0.498-2.141-17.978-87.611-17.978-87.611l-3.188,0.365
				c0,0,21.856,120.942,19.415,118.124c-2.44-2.818-57.148-99.951-57.148-99.951l-2.823,0.656l23.186,47.278l-42.505-22.851
				l-1.479,2.601c0,0,46.24,26.121,46.489,27.191c0.249,1.071,28.116,54.408,28.116,54.408l32.644,381.563l33.794-5.079
				C688.551,488.618,632.5,13.418,626.211-4.682z"/>
			<path style="opacity:0.34;clip-path:url(#SVGID_00000157295530683299664090000002208080512035681413_);fill:#693D3D;" d="
				M681.282,427.389c-4.119-34.554-9.633-80.589-15.593-129.753c1.143,37.029,1.903,80.349-0.609,84.587
				c-4.459,7.524-12.54-60.751-14.212-63.259c-1.672-2.508-1.115,18.95-3.065,22.572c-0.908,1.686-5.013-16.3-9.144-36.014
				l10.904,127.446L681.282,427.389z"/>
			<g style="clip-path:url(#SVGID_00000157295530683299664090000002208080512035681413_);">
				<g style="opacity:0.34;">
					<path style="fill:#693D3D;" d="M625.394,98.162c-11.722-19.774-54.266-95.31-54.266-95.31l-2.823,0.656l23.186,47.278
						l-42.505-22.851l-1.479,2.601c0,0,46.24,26.121,46.489,27.191c0.147,0.634,9.968,19.574,17.961,34.931
						c1.824-0.768,3.53-1.813,5.021-3.118c0.536,3.654,1.989,7.17,4.188,10.136c0.368,0.497,0.796,1.005,1.39,1.177
						C623.971,101.26,624.989,99.642,625.394,98.162z"/>
				</g>
				<g style="opacity:0.34;">
					<path style="fill:#693D3D;" d="M626.211-4.682l-3.802-0.997c0,0,8.117,79.745,7.619,77.604
						c-0.498-2.141-17.978-87.611-17.978-87.611l-3.188,0.365c0,0,13.236,73.243,17.956,104.402c3.35,4.551,8.529,7.69,14.085,8.697
						C633.648,41.396,627.974,0.392,626.211-4.682z"/>
				</g>
			</g>
		</g>
		<g>
			<defs>
				<rect id="SVGID_00000011738059859234487690000012753780403499933834_" x="67.993" width="247.843" height="472.271"/>
			</defs>
			<clipPath id="SVGID_00000107582388977560941300000017359646965392536450_">
				<use xlink:href="#SVGID_00000011738059859234487690000012753780403499933834_"  style="overflow:visible;"/>
			</clipPath>
			<polygon style="clip-path:url(#SVGID_00000107582388977560941300000017359646965392536450_);fill:#BB6644;" points="
				136.218,149.454 253.712,-4.192 262.75,-5.835 220.846,49.215 302.188,13.884 308.761,13.884 220.025,57.431 137.862,166.708 			
				"/>
			
				<polygon style="opacity:0.34;clip-path:url(#SVGID_00000107582388977560941300000017359646965392536450_);fill:#693D3D;" points="
				136.218,149.454 253.712,-4.192 262.75,-5.835 220.846,49.215 302.188,13.884 308.761,13.884 220.025,57.431 137.862,166.708 			
				"/>
			<path style="clip-path:url(#SVGID_00000107582388977560941300000017359646965392536450_);fill:#BB6644;" d="M135.093,452.08
				c0,0,17.784-435.114,4.536-507.054l-4.185-0.41l0.84,72.486l-21.453-57.604l-3.686-0.029l20.838,60.844l-6.815,89.828
				c0,0-29.196-95.489-31.383-127.285l-4.203,0.041c0,0,20.2,114.59,31.745,137.758L98.211,448.54L135.093,452.08z"/>
			<g style="opacity:0.34;clip-path:url(#SVGID_00000107582388977560941300000017359646965392536450_);">
				<path style="fill:#693D3D;" d="M125.167,110.141c0,0-10.805-35.341-19.762-70.181l-4.511,2.008
					c6.535,31.845,14.59,66.966,20.431,78.688l-3.762,53.373c3.574,2.642,8.221,3.81,12.611,3.084
					c-0.612-2.539-1.729-4.955-3.266-7.066c3.115,2.31,7.78,1.36,10.68-1.215c2.9-2.575,4.388-6.364,5.48-10.085
					c0.165,0.319,0.374,0.605,0.606,0.867c0.833-49.891,1.164-98.066,0.529-136.92l-12.834,5.712L125.167,110.141z"/>
			</g>
			<g style="clip-path:url(#SVGID_00000107582388977560941300000017359646965392536450_);">
				<path style="opacity:0.23;fill:#693D3D;" d="M119.835,226.697c3.04,1.737-5.211,112.468-7.382,110.731
					C110.281,335.691,116.795,224.96,119.835,226.697z"/>
				<path style="opacity:0.23;fill:#693D3D;" d="M129.67,287.59c2.622,2.247,1.498,21.726-1.873,21.351
					S127.048,285.342,129.67,287.59z"/>
				<path style="opacity:0.23;fill:#693D3D;" d="M121.429,327.295c2.247,1.873-0.375,34.461-2.247,34.087
					S119.181,325.422,121.429,327.295z"/>
				<path style="opacity:0.23;fill:#693D3D;" d="M140.158,180.835c1.873,4.12,0.749,32.214-2.247,31.839
					C134.914,212.299,138.285,176.714,140.158,180.835z"/>
			</g>
		</g>
	</g>
	<g>
		<g>
			<defs>
				<rect id="SVGID_00000125603937365306006250000001365643925866299021_" x="566.092" width="183.908" height="479.896"/>
			</defs>
			<clipPath id="SVGID_00000093166591732867493760000005932964341919439512_">
				<use xlink:href="#SVGID_00000125603937365306006250000001365643925866299021_"  style="overflow:visible;"/>
			</clipPath>
			<g style="clip-path:url(#SVGID_00000093166591732867493760000005932964341919439512_);">
				<path style="fill:#382318;" d="M694.303,479.896c0,0-34.356-434.12-23.859-506.513l4.166-0.569l1.924,72.465l19.242-58.38
					l3.683-0.169l-18.504,61.594l10.234,89.503c0,0,25.535-96.532,26.509-128.388l4.202-0.119c0,0-15.818,115.276-26.471,138.867
					l35.594,326.767L694.303,479.896z"/>
				<g style="opacity:0.34;">
					<path style="fill:#693D3D;" d="M691.188,137.826l-10.234-89.503l0.43-1.43h-12.638c0.589,30.077,2.017,66.095,3.913,104.337
						c1.215,0.889,2.65,1.475,4.153,1.585c3.27,0.238,6.591-1.718,7.967-4.695c0.591,3.311,5.42,4.87,7.836,2.529
						c0.369,2.36,1.785,4.493,3.722,5.881l-0.909-8.345c6.667-14.764,15.357-65.438,20.926-101.293h-3.964
						C704.642,86.963,691.188,137.826,691.188,137.826z"/>
				</g>
				<path style="opacity:0.34;fill:#693D3D;" d="M684.308,159.285c1.951,2.787,4.459,28.146,2.508,27.31
					S682.358,156.498,684.308,159.285z"/>
				<path style="opacity:0.34;fill:#693D3D;" d="M695.024,169.629c2.66,1.081,9.311,86.461,6.651,84.244
					C699.015,251.656,689.764,167.491,695.024,169.629z"/>
			</g>
			<g style="clip-path:url(#SVGID_00000093166591732867493760000005932964341919439512_);">
				<g>
					<path style="fill:#734329;" d="M579.73-0.045c0.292,0.636-0.82-0.541-1.174,0.062c-2.791,4.743,0.432,11.872,5.865,12.748
						c5.433,0.875,10.765-5.121,9.108-10.369c3.883,4.9,9.894,10.353,15.503,7.593c-0.159,5.685,2.858,11.357,7.662,14.402
						c-4.905-0.47-9.509,4.592-8.579,9.431c0.931,4.838,7.085,7.831,11.465,5.574c0.206,3.503,3.951,5.936,7.46,5.981
						c3.508,0.045,6.778-1.64,9.879-3.281c-0.927,2.5-1.86,5.251-0.982,7.769c0.877,2.518,4.501,4.093,6.291,2.116
						c-2.505,3.873-0.697,9.811,3.542,11.63c-3.156,2.2-6.057,4.767-8.625,7.632c3.265,4.9,10.969,6.033,15.506,2.281
						c-0.153,3.65,2.426,7.239,5.934,8.257c3.508,1.019,7.608-0.63,9.434-3.794c1.02,1.461,0.946,3.39,1.352,5.125
						c0.406,1.735,1.84,3.593,3.581,3.214c2.226-0.485,2.189-3.655,1.611-5.858c2.459,2.789,7.702,2.145,9.413-1.156
						c1.234,4.204,2.915,8.485,6.191,11.394c3.276,2.909,8.546,3.982,12.065,1.372c-1.737,2.385-2.998,5.115-3.69,7.982
						c5.446,0.901,11.26-0.756,15.413-4.392c0.536,3.654,1.989,7.17,4.188,10.136c0.368,0.497,0.796,1.005,1.39,1.176
						c1.533,0.441,2.609-1.497,2.934-3.059c0.664-3.19,0.873-6.475,0.619-9.723c4.224,6.525,12.102,10.503,19.86,10.029
						c0.562,2.515,1.124,5.03,1.685,7.545c3.992-0.9,7.563-3.53,9.605-7.077c-0.081,1.955,0.459,3.932,1.524,5.574
						c1.915,0.41,4.028-0.298,5.31-1.779c-0.772,3.398-0.35,7.054,1.174,10.187c3.216-2.241,5.438-5.857,5.984-9.739
						c2.616,6.146,9.715,10.031,16.302,8.921L772.228-34.543L564.674-17.787L579.73-0.045z"/>
				</g>
				<g>
					<path style="fill:#382318;" d="M615.313-28.187c0.566,1.907,1.698,3.643,3.217,4.928c-3.331-0.51-6.889,1.371-8.344,4.41
						c1.128,1.741,3.099,2.907,5.168,3.057c-4.56-0.557-9.322,2.247-11.047,6.505c-0.296,0.73-0.504,1.577-0.164,2.288
						c0.706,1.476,2.965,1.095,4.277,0.119c1.313-0.976,2.558-2.386,4.193-2.326c-1.898,2.774,1.46,6.866,4.784,6.369
						c3.324-0.497,5.486-4.06,5.565-7.42c0.77,2.333,4.185,2.891,6.151,1.418c1.966-1.473,2.603-4.191,2.384-6.637
						c3.922,1.819,9.048,0.464,11.56-3.054c1.434,4.369,5.465,7.772,10.012,8.453c-2.629,1.074-4.648,3.529-5.194,6.316
						c-1.8-1.045-3.91-2.124-5.866-1.414c-1.957,0.71-2.406,4.227-0.355,4.582c-2.577-0.575-5.497-0.379-7.541,1.293
						c-2.044,1.671-2.706,5.094-0.87,6.992c1.594,1.649,4.385,1.558,6.37,0.409c1.985-1.149,3.347-3.105,4.621-5.012
						c0.94,3.09,5.531,4.248,7.825,1.975c-0.342,2.072,1.32,4.052,3.282,4.803c1.962,0.75,4.14,0.57,6.231,0.379
						c-2.072,3.783-0.934,9.013,2.523,11.593c-3.102,1.738-4.617,5.864-3.379,9.197c-2.449-1.652-5.947,1.622-5.162,4.47
						c0.786,2.848,4.232,4.255,7.149,3.787c2.917-0.467,5.403-2.301,7.762-4.08c-1.551,2.31-1.108,5.742,0.979,7.582
						c2.087,1.84,5.547,1.852,7.645,0.024c-0.583,2.746,1.595,5.751,4.386,6.052c-2.838,3.91-1.787,10.074,2.185,12.824
						c3.972,2.75,10.112,1.562,12.772-2.471c0.93,3.145,3.931,5.562,7.202,5.801c3.271,0.239,6.591-1.718,7.967-4.695
						c0.591,3.311,5.42,4.87,7.836,2.53c0.574,3.673,3.68,6.807,7.347,7.414c3.667,0.607,7.618-1.36,9.344-4.652
						c0.144,3.765,2.767,7.314,6.324,8.558c3.556,1.243,7.82,0.102,10.278-2.753c1.887,7.165,10.725,10.574,17.982,9.084
						c7.258-1.49,13.223-6.477,18.852-11.294V-40.897h-175.95L615.313-28.187z"/>
				</g>
			</g>
		</g>
		<g>
			<defs>
				<rect id="SVGID_00000139262368795585303650000005391172756199313833_" width="239.376" height="500"/>
			</defs>
			<clipPath id="SVGID_00000036964614788107404350000002789395304267728299_">
				<use xlink:href="#SVGID_00000139262368795585303650000005391172756199313833_"  style="overflow:visible;"/>
			</clipPath>
			<g style="clip-path:url(#SVGID_00000036964614788107404350000002789395304267728299_);">
				<g>
					<path style="fill:#DD954E;" d="M225.191-1.742c-0.353,0.77,0.993-0.655,1.422,0.075c3.38,5.744-0.524,14.378-7.104,15.438
						s-13.037-6.202-11.03-12.558c-4.702,5.934-11.982,12.538-18.775,9.196c0.192,6.886-3.462,13.754-9.279,17.442
						c5.94-0.569,11.517,5.561,10.389,11.421c-1.127,5.86-8.581,9.483-13.885,6.751c-0.249,4.242-4.785,7.189-9.034,7.244
						c-4.249,0.055-8.209-1.986-11.964-3.974c1.122,3.028,2.252,6.36,1.19,9.409c-1.062,3.049-5.451,4.957-7.619,2.563
						c3.034,4.69,0.844,11.882-4.289,14.085c3.823,2.665,7.335,5.773,10.446,9.243c-3.954,5.934-13.284,7.307-18.779,2.762
						c0.185,4.42-2.939,8.766-7.187,10s-9.214-0.763-11.425-4.595c-1.235,1.77-1.146,4.105-1.637,6.207
						c-0.492,2.102-2.228,4.352-4.337,3.892c-2.695-0.588-2.651-4.427-1.952-7.095c-2.978,3.377-9.327,2.598-11.399-1.399
						c-1.494,5.091-3.53,10.276-7.498,13.799c-3.968,3.523-10.35,4.822-14.612,1.662c2.103,2.889,3.631,6.194,4.469,9.667
						c-6.595,1.091-13.637-0.915-18.666-5.318c-0.65,4.425-2.409,8.683-5.072,12.276c-0.446,0.602-0.964,1.218-1.684,1.425
						c-1.857,0.535-3.16-1.813-3.553-3.705c-0.803-3.864-1.057-7.841-0.75-11.775c-5.116,7.902-14.656,12.719-24.052,12.145
						c-0.68,3.046-1.361,6.092-2.041,9.138c-4.835-1.089-9.159-4.275-11.633-8.571c0.098,2.368-0.556,4.762-1.845,6.751
						c-2.319,0.497-4.879-0.361-6.431-2.154c0.934,4.115,0.424,8.543-1.421,12.337c-3.895-2.714-6.586-7.094-7.247-11.795
						c-3.169,7.443-11.766,12.148-19.743,10.804L-7.936-43.522l251.361,20.294L225.191-1.742z"/>
				</g>
				<g>
					<path style="fill:#734329;" d="M160.886-8.972c-0.637,2.15-1.914,4.105-3.625,5.554c3.754-0.574,7.763,1.545,9.403,4.97
						c-1.272,1.962-3.493,3.276-5.825,3.445c5.139-0.627,10.506,2.533,12.449,7.331c0.333,0.823,0.568,1.778,0.186,2.579
						c-0.795,1.663-3.341,1.234-4.821,0.134c-1.479-1.1-2.883-2.689-4.725-2.621c2.139,3.126-1.646,7.738-5.391,7.178
						c-3.746-0.56-6.183-4.576-6.271-8.362c-0.867,2.629-4.717,3.258-6.932,1.598c-2.215-1.66-2.933-4.723-2.687-7.48
						c-4.419,2.05-10.197,0.523-13.028-3.442c-1.616,4.923-6.158,8.758-11.283,9.526c2.963,1.211,5.238,3.977,5.854,7.118
						c2.029-1.177,4.407-2.393,6.611-1.593c2.205,0.8,2.711,4.764,0.4,5.164c2.904-0.648,6.195-0.427,8.498,1.457
						c2.303,1.884,3.049,5.741,0.981,7.88c-1.796,1.858-4.942,1.756-7.179,0.461c-2.237-1.294-3.772-3.499-5.207-5.648
						c-1.06,3.482-6.233,4.788-8.818,2.225c0.386,2.335-1.488,4.567-3.699,5.413c-2.211,0.846-4.665,0.642-7.023,0.427
						c2.335,4.264,1.052,10.158-2.843,13.065c3.495,1.959,5.203,6.608,3.808,10.364c2.76-1.862,6.703,1.828,5.817,5.037
						c-0.886,3.209-4.769,4.795-8.057,4.268c-3.287-0.527-6.089-2.594-8.747-4.598c1.748,2.603,1.249,6.471-1.103,8.545
						c-2.352,2.074-6.251,2.086-8.616,0.027c0.657,3.095-1.797,6.481-4.942,6.821c3.198,4.406,2.014,11.353-2.463,14.452
						c-4.477,3.099-11.396,1.76-14.393-2.785c-1.048,3.544-4.43,6.269-8.116,6.537c-3.686,0.269-7.428-1.937-8.979-5.291
						c-0.666,3.731-6.108,5.488-8.83,2.851c-0.646,4.139-4.147,7.672-8.28,8.356s-8.585-1.532-10.53-5.243
						c-0.163,4.243-3.119,8.243-7.127,9.645c-4.008,1.401-8.813,0.114-11.584-3.103c-2.126,8.075-12.086,11.917-20.266,10.237
						c-8.179-1.68-14.901-7.299-21.246-12.728V-23.297h198.289L160.886-8.972z"/>
				</g>
				<g>
					<path style="fill:#382318;" d="M92.864,5.611c-0.199,0.433,0.559-0.369,0.8,0.042c1.902,3.233-0.295,8.092-3.998,8.688
						c-3.703,0.597-7.337-3.49-6.207-7.067c-2.646,3.339-6.743,7.056-10.566,5.175c0.108,3.875-1.948,7.74-5.222,9.816
						c3.343-0.32,6.481,3.13,5.847,6.427c-0.634,3.298-4.829,5.337-7.814,3.799c-0.14,2.387-2.693,4.046-5.084,4.077
						s-4.62-1.118-6.733-2.236c0.632,1.704,1.267,3.579,0.67,5.295c-0.598,1.716-3.068,2.79-4.288,1.442
						c1.707,2.64,0.475,6.687-2.414,7.927c2.151,1.5,4.128,3.249,5.878,5.201c-2.225,3.34-7.476,4.112-10.568,1.555
						c0.104,2.487-1.654,4.933-4.045,5.628c-2.391,0.694-5.186-0.43-6.43-2.586c-0.695,0.996-0.645,2.31-0.921,3.493
						c-0.277,1.183-1.254,2.449-2.441,2.19c-1.517-0.331-1.492-2.491-1.098-3.993c-1.676,1.901-5.249,1.462-6.415-0.788
						c-0.841,2.865-1.986,5.783-4.219,7.766s-5.824,2.714-8.223,0.935c1.184,1.626,2.043,3.486,2.515,5.44
						c-3.712,0.614-7.674-0.515-10.505-2.993c-0.366,2.49-1.356,4.886-2.855,6.908c-0.251,0.339-0.542,0.685-0.947,0.802
						c-1.045,0.301-1.778-1.021-2-2.085c-0.452-2.174-0.595-4.413-0.422-6.627c-2.879,4.447-8.248,7.158-13.536,6.835
						c-0.383,1.714-0.766,3.428-1.149,5.143c-2.721-0.613-5.155-2.406-6.546-4.823c0.055,1.333-0.313,2.68-1.039,3.799
						c-1.305,0.279-2.746-0.203-3.619-1.212c0.526,2.316,0.239,4.808-0.8,6.943c-2.192-1.527-3.706-3.992-4.079-6.638
						c-1.783,4.189-6.621,6.836-11.111,6.08l8.386-103.872L103.125-6.48L92.864,5.611z"/>
				</g>
			</g>
			<g style="clip-path:url(#SVGID_00000036964614788107404350000002789395304267728299_);">
				<path style="fill:#382318;" d="M17.768-23.815l4.575-1.325c0,0,3.784,80.452,4.032,78.267
					c0.248-2.184,7.161-89.167,7.161-89.167l4.046,0.09c0,0-6.185,122.836-3.629,119.807C36.51,80.827,87.886-21.027,87.886-21.027
					l3.641,0.413L70.82,28.665l49.103-26.515l2.301,2.474c0,0-53.198,30.107-53.321,31.199
					c-0.124,1.092-25.621,56.835-25.621,56.835l39.806,389.225l-55.828,7.105C27.259,488.989,13.073-5.172,17.768-23.815z"/>
				<g style="opacity:0.34;">
					<path style="fill:#693D3D;" d="M119.922,2.151L70.82,28.665l20.707-49.279l-3.641-0.413c0,0-51.377,101.854-53.933,104.883
						c-1.945,2.305,1.171-68.257,2.772-102.132l-4.897,3.685c-2.064,25.909-5.286,66.239-5.454,67.717
						c-0.174,1.534-2.093-37.701-3.219-61.19l-6.28,4.727c-0.259,25.478,0.342,71.83,1.369,126.271
						c1.809-1.942,2.815-4.548,3.569-7.117c1.166,2.25,4.74,2.688,6.415,0.788c-0.394,1.502-0.418,3.662,1.098,3.993
						c1.187,0.259,2.164-1.008,2.441-2.19c0.277-1.183,0.226-2.497,0.921-3.493c1.244,2.156,4.039,3.28,6.43,2.586
						c2.391-0.694,4.149-3.14,4.045-5.628c0.653,0.54,1.405,0.923,2.202,1.173l-2.085-20.387c0,0,25.497-55.743,25.621-56.835
						c0.124-1.092,53.321-31.199,53.321-31.199L119.922,2.151z"/>
				</g>
				<g>
					<path style="opacity:0.23;fill:#693D3D;" d="M34.894,156.91c2.993,2.619,5.238,55.371,1.496,55.371
						S31.901,154.291,34.894,156.91z"/>
					<path style="opacity:0.23;fill:#693D3D;" d="M38.635,230.988c2.993,1.871,4.489,71.084,1.496,68.84
						C37.139,297.582,35.642,229.117,38.635,230.988z"/>
					<path style="opacity:0.23;fill:#693D3D;" d="M25.915,190.208c3.741,2.245,9.727,199.41,5.986,200.158
						C28.16,391.114,22.174,187.963,25.915,190.208z"/>
				</g>
			</g>
		</g>
		<g>
			<path style="fill:#382318;" d="M579.389,445.999c-53.985,14.689-113.063-11.233-180.289-12.961
				c-67.227-1.728-33.613,1.728-96.766,5.184c-63.152,3.456-168.067-16.417-240.386-20.737c-20.745-1.239-42.073-1.126-61.947-0.337
				V500h750v-88.371C706.306,419.329,618.997,435.222,579.389,445.999z"/>
			<path style="opacity:0.17;fill:#6A4232;" d="M251.458,443.673c-2.538,3.264-23.208,0.363-24.296-2.901
				C226.074,437.508,253.996,440.409,251.458,443.673z"/>
			<path style="opacity:0.17;fill:#6A4232;" d="M264.019,447.327c1.743-3.195,23.82-2.324,20.625,0.871
				S262.276,450.522,264.019,447.327z"/>
			<path style="opacity:0.17;fill:#6A4232;" d="M244.556,454.88c3.776-2.615,23.53,2.033,19.753,4.938
				C260.533,462.723,240.78,457.494,244.556,454.88z"/>
			<path style="opacity:0.17;fill:#6A4232;" d="M612.899,442.388c-2.905,3.195-21.787,7.843-22.368,4.648
				C589.95,443.841,615.804,439.193,612.899,442.388z"/>
			<path style="opacity:0.17;fill:#6A4232;" d="M598.956,451.975c-1.162,1.162-12.782,5.81-14.525,4.357
				C582.688,454.88,600.117,450.813,598.956,451.975z"/>
			<path style="opacity:0.17;fill:#6A4232;" d="M585.302,448.779c0,1.452-11.91,7.553-13.363,4.648
				C570.487,450.522,585.302,447.798,585.302,448.779z"/>
		</g>
	</g>
	<circle style="fill:#F8E8DA;" cx="431.699" cy="306.491" r="2.605"/>
	<g>
		<g>
			<defs>
				<rect id="SVGID_00000031911049718438899770000014368433340581249958_" y="267.969" width="227.131" height="232.031"/>
			</defs>
			<clipPath id="SVGID_00000034797715997910972150000004075381845599321246_">
				<use xlink:href="#SVGID_00000031911049718438899770000014368433340581249958_"  style="overflow:visible;"/>
			</clipPath>
			<path style="clip-path:url(#SVGID_00000034797715997910972150000004075381845599321246_);fill:#734329;" d="M108.043,440.651
				c0.672-0.615,1.888-1.594,3.947-2.878c21.166,14.526,36.416-13.67,36.416-13.67c-27.887-10.85-35.776,8.207-37.112,12.274
				c-1.07,0.726-1.96,1.468-2.619,2.219c2.834-9.588,4.348-18.923,4.972-27.68c0.495-0.584,1.435-1.649,2.824-3.041
				c23.451,5.986,25.58-16.608,25.58-16.608c-20.842-1.752-25.032,9.318-25.868,14.225c-1.147,1.209-1.999,2.436-2.421,3.645
				c0.356-6.113,0.289-11.927-0.055-17.328c0.195-0.39,0.767-1.491,1.783-3.112c22.852-0.884,16.829-20.67,16.829-20.67
				c-17.398,6.06-17.905,15.42-17.344,19.106c-0.627,0.857-1.124,1.647-1.436,2.332c-0.542-6.813-1.502-12.91-2.556-18.043
				c10.346-19.217-8.034-24.907-8.034-24.907c-10.588,17.221,7.142,26.482,7.142,26.482c0.054-0.09,0.103-0.178,0.156-0.268
				c1.479,8.881,2.168,17.245,2.23,25.095c-0.532-1.295-1.211-2.593-1.994-3.873c1.879-21.284-18.028-18.518-18.028-18.518
				c3.234,24.161,13.375,21.468,16.821,19.789c1.565,2.444,2.712,4.366,3.2,5.194c-0.102,10.508-1.324,20.064-3.261,28.668
				c-0.384-2.535-1.215-4.991-2.312-7.306c1.446-21.99-17.869-19.024-17.869-19.024c-1.633,27.284,17.302,23.701,17.302,23.701
				c0.069-0.401,0.131-0.794,0.188-1.182c1.103,2.883,1.738,5.203,2.053,6.506c-9.174,37.015-31.313,55.561-31.313,55.561
				l2.873,1.261C94.413,472.976,103.059,456.505,108.043,440.651z"/>
			<g style="clip-path:url(#SVGID_00000034797715997910972150000004075381845599321246_);">
				<path style="fill:#734329;" d="M41.957,345.565c0,0,37.066-28.2,20.125-51.918C47.779,273.624,39.562,339.801,41.957,345.565z"
					/>
				<path style="fill:#734329;" d="M35.667,334.608c0,0-0.215-40.3-15.227-38.784C5.428,297.339,33.142,333.354,35.667,334.608z"/>
				<path style="fill:#734329;" d="M66.406,346.513c-2.774-18.519-28.386,14.747-25.359,20.914
					C44.073,373.595,69.18,365.032,66.406,346.513z"/>
				<path style="fill:#734329;" d="M2.501,316.557c-14.183,13.543,23.655,49.09,28.728,46.114
					C36.302,359.694,16.684,303.014,2.501,316.557z"/>
				<path style="fill:#734329;" d="M67.774,382.098c-3.17-15.21-32.579,13.021-30.895,19.799
					C38.563,408.675,70.945,397.308,67.774,382.098z"/>
				<path style="fill:#734329;" d="M10.215,360.384c-15.446,4.004,5.486,53.493,11.99,51.822
					C28.709,410.535,25.661,356.38,10.215,360.384z"/>
				<path style="fill:#734329;" d="M65.392,425.534c1.705-16.532-44.249,9.721-42.666,14.309
					C24.309,444.432,63.687,442.066,65.392,425.534z"/>
				<path style="fill:#734329;" d="M-9.633,390.581c-19.47-2.255,5.753,66.397,13.78,68.436
					C12.173,461.057,9.837,392.836-9.633,390.581z"/>
				<path style="fill:#734329;" d="M-31.588,524.702c0,0,92.46-110.459,64.089-198.88c0,0,28.941,83.376-67.732,198.245
					L-31.588,524.702z"/>
				<path style="fill:#734329;" d="M-10.599,396.665c0,0,22.315,48.552,11.009,77.579l3.43-3.972
					C3.839,470.272,12.887,440.145-10.599,396.665z"/>
				<path style="fill:#734329;" d="M61.199,425.67c0,0-38.799,11.828-43.166,17.249l1.464-3.079
					C19.497,439.84,46.04,427.775,61.199,425.67z"/>
				<path style="fill:#734329;" d="M65.122,384.538c0,0-30.999,19.899-35.227,28.324l1.026-3.861
					C30.921,409.001,56.247,387.959,65.122,384.538z"/>
				<path style="fill:#734329;" d="M13.719,366.837c0,0,15.135,40.854,11.085,57.502l-1.301,2.268
					C23.503,426.607,26.961,410.188,13.719,366.837z"/>
				<path style="fill:#734329;" d="M63.34,350.294c0,0-24.99,19.622-26.506,25.914l-0.003-4.416
					C36.832,371.792,58.271,353.539,63.34,350.294z"/>
				<path style="fill:#734329;" d="M10.109,323.443c0,0,27.73,31.039,25.548,62.053l-1.091,2.459
					C34.567,387.956,40.807,366.59,10.109,323.443z"/>
				<path style="fill:#734329;" d="M36.939,356.732c0,0,14.428-44.026,24.509-56.134c0,0-10.918,11.344-24.447,53.12L36.939,356.732
					z"/>
			</g>
			<path style="clip-path:url(#SVGID_00000034797715997910972150000004075381845599321246_);fill:#734329;" d="M-17.295,482.338
				c14.167-7.456,32.809,3.728,32.809,3.728s-9.693-16.404,0.746-20.133c3.845-1.373,6.27-0.721,7.804,0.648
				c-3.087-11.745-4.373-34.132,17.548-36.439c28.335-2.983,17.896,29.08,17.896,29.08s5.22-14.167,22.37-14.167
				c14.11,0,16.105,11.098,16.369,15.034c0.039-11.397,9.355-21.602,18.676-18.017c9.693,3.728,1.491,20.132,1.491,20.132
				s3.728-3.728,10.439-1.491c6.711,2.237,0.746,17.896,0.746,17.896s3.728-8.948,16.404-6.711
				c12.676,2.237-5.965,20.132-5.965,20.132s8.948-2.983,23.115,4.474c14.167,7.456,11.93,11.93,11.93,11.93H-24.006
				C-24.006,508.436-31.462,489.795-17.295,482.338z"/>
			<path style="clip-path:url(#SVGID_00000034797715997910972150000004075381845599321246_);fill:#734329;" d="M98.186,484.042
				c0,0-1.45-8.409-11.019-10.439c0,0,2.9-11.598-7.249-15.658c-10.149-4.059-20.587,1.45-23.197,11.598c0,0-0.29-4.929-6.959-0.87
				c-6.669,4.059-1.16,9.569-1.16,9.569s-8.409-3.48-13.628,2.32c-5.219,5.799-3.19,14.498-3.19,14.498s-4.059-8.119-11.888-2.61
				c-7.829,5.509-7.829,14.788-7.829,14.788h86.698h30.156c0,0-8.409-10.149-14.498-11.309c-6.089-1.16-7.249,3.19-7.249,3.19
				S109.784,484.912,98.186,484.042z"/>
			<path style="clip-path:url(#SVGID_00000034797715997910972150000004075381845599321246_);fill:#734329;" d="M165.534,494.096
				c0,0-7.318-39.81-30.937-54.476c0,0,27.024,19.135,31.676,44.612c0,0-6.816-31.486-12.726-43.558
				c0,0,18.085,25.944,18.133,47.306c0,0-1.616-67.301-22.184-78.696c0,0,28.889,22.364,26.966,77.675
				c0,0-0.615-39.181,10.33-58.183c0,0-7.887,44.819-5.303,61.522c0,0,9.728-52.271,30.468-68.558c0,0-27.139,52.456-22.556,79.909
				c0,0,11.034-44.314,28.531-58.341c0,0-20.025,41.233-19.31,66.177l-40.298-1.401c0,0,5.376-29.48-18.772-51.679
				C139.551,456.406,156.44,471.233,165.534,494.096z"/>
			<g style="clip-path:url(#SVGID_00000034797715997910972150000004075381845599321246_);">
				<path style="fill:#BB6644;" d="M33.97,477.492l1.181-1.269c0,0-0.076-0.445-0.226-1.21c6.021-18.03-11.569-28.028-11.569-28.028
					C20.538,466.477,33.97,477.492,33.97,477.492z"/>
				<path style="fill:#BB6644;" d="M32.526,483.185c3.893-3.941,7.584-7.11,11.016-9.658c4.482,1.237,19.977,4.205,26.949-11.376
					c0,0-11.738-10.308-28.188,10.994c0,0,0.061,0.022,0.172,0.059c-3.747,2.86-6.76,5.713-8.67,7.654
					c5.233-9.357,11.155-17.994,15.856-24.393c0.015,0.298,0.019,0.588,0.043,0.892c0,0,19.356,1.034,17.745-25.423
					c0,0-18.462,4.84-17.812,24.047c-1.58,2.023-3.072,3.994-4.497,5.921c-1.001-22.536-15.542-30.895-15.542-30.895
					c-0.107,14.298,10.938,26.695,14.484,30.305c0.163,0.756,0.198,1.125,0.198,1.125l0.371-0.556
					c0.116,0.114,0.217,0.211,0.295,0.286c-8.859,12.016-14.779,22.175-18.682,30.632l0.04-0.089c0,0,0.046-1.99-0.897-5.718
					c0,0,0.004,0.001,0.004,0.001c6.323-17.345-15.324-29.374-15.324-29.374c-2.942,20.965,10.923,27.709,14.498,29.086
					c0.833,2.978,1.228,5.713,0.881,7.861c-10.133,22.977-5.047,32.747-5.047,32.747l1.815-0.825
					c-2.526-8.102-0.588-18.282,3.44-28.663c1.02-0.56,3.146-1.676,6.001-2.947c5.19,3.217,21.561,9.898,34.212-6.265
					c0,0-19.636-11.223-35.859,4.925c-0.066,0.066,0.206,0.347,0.762,0.751c-1.526,0.728-3.089,1.539-4.686,2.443
					C27.926,492.189,30.132,487.622,32.526,483.185z"/>
				<path style="fill:#BB6644;" d="M46.422,459.178l1.118-0.559c0,0,0.019-4.418-0.228-9.99c6.617-16.182-3.719-22.801-3.719-22.801
					c-5.003,13.064,1.034,21.141,2.857,23.179C46.698,453.562,46.772,457.555,46.422,459.178z"/>
			</g>
			<path style="clip-path:url(#SVGID_00000034797715997910972150000004075381845599321246_);fill:#E5B75A;" d="M79.118,430.239
				c3.535,0.558,3.908,5.396,0.186,5.582C75.582,436.007,75.582,429.68,79.118,430.239z"/>
			<path style="clip-path:url(#SVGID_00000034797715997910972150000004075381845599321246_);fill:#EED395;" d="M33.987,423.263
				c2.752-0.597,4.247,3.699,0.884,4.073S32.138,423.664,33.987,423.263z"/>
			<path style="clip-path:url(#SVGID_00000034797715997910972150000004075381845599321246_);fill:#EED395;" d="M6.86,404.328
				c2.752-0.597,4.247,3.699,0.884,4.073S5.011,404.729,6.86,404.328z"/>
			<path style="clip-path:url(#SVGID_00000034797715997910972150000004075381845599321246_);fill:#EED395;" d="M48.227,378.67
				c2.752-0.597,4.247,3.699,0.884,4.073C45.749,383.117,46.378,379.072,48.227,378.67z"/>
		</g>
		<g>
			<defs>
				<rect id="SVGID_00000134966951275955107200000003396462592285072259_" x="503.46" y="217.82" width="246.54" height="282.18"/>
			</defs>
			<clipPath id="SVGID_00000095302952153970294170000008906107218208780980_">
				<use xlink:href="#SVGID_00000134966951275955107200000003396462592285072259_"  style="overflow:visible;"/>
			</clipPath>
			<path style="opacity:0.34;clip-path:url(#SVGID_00000095302952153970294170000008906107218208780980_);fill:#693D3D;" d="
				M707.16,294.998c2.787,4.738,11.426,101.715,8.36,101.994C712.454,397.271,704.373,290.261,707.16,294.998z"/>
			<path style="opacity:0.34;clip-path:url(#SVGID_00000095302952153970294170000008906107218208780980_);fill:#693D3D;" d="
				M721.06,383.495c-1.763,11.412-3.93,22.349-6.098,25.48c-5.016,7.245-11.983-38.735-15.327-44.309
				c-3.344-5.573-0.557,20.9-3.623,25.638c-1.542,2.383-6.258-13.783-10.564-30.439c2.288,32.752,4.386,61.3,5.966,82.327
				l35.836-1.878L721.06,383.495z"/>
			<path style="clip-path:url(#SVGID_00000095302952153970294170000008906107218208780980_);fill:#734329;" d="M655.338,391.722
				c0.165-0.896,0.542-2.411,1.408-4.678c25.643-1.204,20.77-32.887,20.77-32.887c-28.78,8.193-23.56,28.147-22.169,32.195
				c-0.414,1.225-0.676,2.353-0.748,3.35c-3.531-9.354-7.962-17.709-12.753-25.066c0.042-0.764,0.148-2.181,0.414-4.129
				c22.307-9.391,10.359-28.685,10.359-28.685c-17.67,11.19-14.325,22.544-12.028,26.96c-0.184,1.656-0.122,3.149,0.272,4.367
				c-3.408-5.088-6.973-9.681-10.508-13.778c-0.081-0.429-0.289-1.651-0.458-3.557c17.68-14.505,0.932-26.638,0.932-26.638
				c-10.208,15.336-4.959,23.104-2.286,25.703c0.018,1.061,0.099,1.992,0.264,2.727c-4.547-5.103-8.994-9.383-12.933-12.837
				c-3.359-21.565-21.444-15.001-21.444-15.001c1.961,20.121,21.685,16.794,21.685,16.794c-0.011-0.105-0.026-0.204-0.038-0.308
				c6.542,6.185,12.143,12.436,16.932,18.656c-1.206-0.711-2.531-1.335-3.928-1.883c-11.356-18.099-25.553-3.873-25.553-3.873
				c17.169,17.304,23.626,9.034,25.358,5.614c2.723,1.003,4.798,1.842,5.687,2.208c6.264,8.437,11.061,16.792,14.713,24.819
				c-1.837-1.788-3.982-3.245-6.255-4.427c-12.127-18.401-25.731-4.372-25.731-4.372c15.176,22.733,28.104,8.442,28.104,8.442
				c-0.187-0.361-0.375-0.712-0.564-1.056c2.62,1.632,4.527,3.097,5.566,3.946c15.041,35.043,8.595,63.195,8.595,63.195l3.052-0.73
				C663.995,425.718,660.94,407.368,655.338,391.722z"/>
			<path style="clip-path:url(#SVGID_00000095302952153970294170000008906107218208780980_);fill:#734329;" d="M612.445,455.91
				c0,0,3.208-18.607,24.381-23.098c0,0-6.416-25.664,16.04-34.647c22.456-8.983,45.554,3.208,51.328,25.664
				c0,0,0.642-10.907,15.398-1.925c14.757,8.983,2.567,21.173,2.567,21.173s18.607-7.699,30.155,5.133
				c11.549,12.832,7.058,32.08,7.058,32.08s8.982-17.965,26.306-5.774c17.323,12.19,17.323,32.722,17.323,32.722H611.162h-66.727
				c0,0,18.607-22.456,32.08-25.023c13.474-2.566,16.04,7.058,16.04,7.058S586.781,457.835,612.445,455.91z"/>
			<path style="clip-path:url(#SVGID_00000095302952153970294170000008906107218208780980_);fill:#BB6644;" d="M679.891,413.418
				c4.108,0,6.162,6.984,1.233,7.395C676.193,421.224,675.783,413.418,679.891,413.418z"/>
			<path style="clip-path:url(#SVGID_00000095302952153970294170000008906107218208780980_);fill:#BB6644;" d="M665.512,426.564
				c3.698,0.822,4.93,6.162,0.411,5.752C658.558,431.646,661.815,425.743,665.512,426.564z"/>
			<path style="clip-path:url(#SVGID_00000095302952153970294170000008906107218208780980_);fill:#BB6644;" d="M658.117,407.255
				c0,0-2.876-4.93,3.287-4.519S664.69,410.542,658.117,407.255z"/>
			<path style="clip-path:url(#SVGID_00000095302952153970294170000008906107218208780980_);fill:#BB6644;" d="M646.203,430.262
				c4.519-0.411,9.038,8.217,1.643,9.038C640.451,440.122,641.684,430.673,646.203,430.262z"/>
			<path style="clip-path:url(#SVGID_00000095302952153970294170000008906107218208780980_);fill:#EED395;" d="M621.969,419.995
				c3.62-0.785,5.586,4.866,1.163,5.358C618.709,425.845,619.536,420.523,621.969,419.995z"/>
			<path style="clip-path:url(#SVGID_00000095302952153970294170000008906107218208780980_);fill:#EED395;" d="M681.924,387.007
				c3.62-0.785,5.586,4.867,1.163,5.358C678.664,392.856,679.492,387.535,681.924,387.007z"/>
			<path style="clip-path:url(#SVGID_00000095302952153970294170000008906107218208780980_);fill:#734329;" d="M607.551,490.431
				c9.774-5.144,22.635,2.572,22.635,2.572s-6.688-11.317,0.514-13.889c2.652-0.947,4.326-0.497,5.384,0.447
				c-2.129-8.103-3.017-23.547,12.106-25.139c19.548-2.058,12.346,20.063,12.346,20.063s3.601-9.774,15.433-9.774
				c9.735,0,11.111,7.656,11.293,10.372c0.027-7.863,6.454-14.903,12.885-12.43c6.687,2.572,1.029,13.889,1.029,13.889
				s2.572-2.572,7.202-1.029c4.63,1.543,0.514,12.346,0.514,12.346s2.572-6.173,11.317-4.63c8.745,1.543-4.115,13.889-4.115,13.889
				s6.173-2.058,15.947,3.087c9.774,5.144,8.231,8.231,8.231,8.231h-137.35C602.921,508.436,597.777,495.575,607.551,490.431z"/>
			<g style="clip-path:url(#SVGID_00000095302952153970294170000008906107218208780980_);">
				<path style="fill:#734329;" d="M700.087,289.377c0,0-46.156-25.067-31.346-54.412
					C681.245,210.192,701.766,282.541,700.087,289.377z"/>
				<path style="fill:#734329;" d="M705.216,276.085c0,0-6.68-44.955,10.313-45.844
					C732.521,229.353,707.816,274.253,705.216,276.085z"/>
				<path style="fill:#734329;" d="M672.999,294.632c-0.087-21.117,34.172,11.563,31.857,18.957
					C702.541,320.982,673.086,315.749,672.999,294.632z"/>
				<path style="fill:#734329;" d="M739.083,250.27c18.133,12.66-17.937,58.777-24.102,56.331
					C708.816,304.154,720.95,237.61,739.083,250.27z"/>
				<path style="fill:#734329;" d="M677.584,334.53c0.922-17.497,38.549,8.919,37.835,16.763S676.662,352.027,677.584,334.53z"/>
				<path style="fill:#734329;" d="M738.011,300.444c17.903,1.81,3.07,60.566-4.466,59.82
					C726.009,359.517,720.108,298.634,738.011,300.444z"/>
				<path style="fill:#734329;" d="M687.697,382.535c-4.739-18.134,50.989,3.237,50.012,8.623
					C736.733,396.544,692.436,400.668,687.697,382.535z"/>
				<path style="fill:#734329;" d="M765.319,330.694c21.315-5.856,4.988,74.994-3.609,78.645
					C753.114,412.99,744.004,336.55,765.319,330.694z"/>
				<path style="fill:#734329;" d="M812.818,476.415c0,0-122.022-107.242-105.582-210.667c0,0-17.942,97.9,109.533,209.334
					L812.818,476.415z"/>
				<path style="fill:#734329;" d="M767.44,337.309c0,0-16.536,57.948,1.05,88.36l-4.505-3.839
					C763.985,421.831,748.728,389.805,767.44,337.309z"/>
				<path style="fill:#734329;" d="M692.394,381.966c0,0,45.276,6.522,51.074,11.814l-2.16-3.18
					C741.308,390.599,709.651,381.709,692.394,381.966z"/>
				<path style="fill:#734329;" d="M680.959,336.794c0,0,37.968,16.857,44.127,25.522l-1.807-4.128
					C723.28,358.188,691.439,339.083,680.959,336.794z"/>
				<path style="fill:#734329;" d="M735.214,308.238c0,0-9.854,48.135-2.483,65.995l1.839,2.305
					C734.57,376.538,727.897,358.83,735.214,308.238z"/>
				<path style="fill:#734329;" d="M677.065,298.319c0,0,31.222,17.579,33.993,24.333l-0.755-4.923
					C710.303,317.73,683.272,301.066,677.065,298.319z"/>
				<path style="fill:#734329;" d="M731.786,259.252c0,0-25.578,39.357-17.821,73.551l1.638,2.554
					C715.603,335.357,704.979,312.614,731.786,259.252z"/>
				<path style="fill:#734329;" d="M707.597,300.962c0,0-23.641-46.594-36.956-58.359c0,0,14.118,10.769,36.369,55.01
					L707.597,300.962z"/>
			</g>
			<g style="clip-path:url(#SVGID_00000095302952153970294170000008906107218208780980_);">
				<path style="fill:#734329;" d="M712.464,486.347c0,0-10.356-49.521-40.315-67.127c0,0,34.349,23.087,40.938,54.78
					c0,0-9.476-39.135-17.227-54.04c0,0,23.387,31.868,24.098,58.558c0,0-0.064-64.982-30.115-97.658
					c0,0,36.779,27.066,36.059,96.237c0,0-1.962-48.94,11.136-73.016c0,0-8.491,56.243-4.754,77.035c0,0,10.565-65.61,35.984-86.593
					c0,0-32.315,66.372-25.752,100.536c0,0,12.439-55.708,33.874-73.768c0,0-23.766,52.131-22.114,83.279l-50.396-0.524
					c0,0,5.82-37-25.029-64.004C678.85,440.043,700.404,458.056,712.464,486.347z"/>
			</g>
			<path style="clip-path:url(#SVGID_00000095302952153970294170000008906107218208780980_);fill:#BB6644;" d="M747.782,421.284
				l0.142,0.037c0.265-0.814-0.154-4.275-0.821-8.484c2.721-5.046,5.784-21.063-2.321-22.503c-9.281-1.649-1.531,25.445,1.193,23.93
				c0.115-0.064,0.236-0.165,0.359-0.296c0.364,3.658,0.402,5.442,0.371,6.289c-4.215-4.102-8.019-8.719-11.243-13.109
				c0.014-0.073,0.008-0.165-0.02-0.277c0,0-3.654-24.152-12.896-19.439c-8.191,4.178,8.998,19.162,12.363,19.906
				c3.597,5.153,7.125,9.331,10.503,12.722c-0.367,0.048-0.828,0.071-1.368,0.07c-0.091-0.103-0.193-0.206-0.32-0.31
				c0,0-21.098-13.624-22.467-2.953c-1.266,9.868,23.753,7.905,23.149,3.952c0.895,0.071,1.562,0.119,1.921,0.144
				c15.943,15.464,28.316,13.415,28.316,13.415l-0.161-1.538C764.922,434.087,755.676,428.672,747.782,421.284z"/>
			<g style="clip-path:url(#SVGID_00000095302952153970294170000008906107218208780980_);">
				<path style="fill:#734329;" d="M530.775,504.702c0,0-5.889-32.036-24.896-43.837c0,0,21.746,15.398,25.49,35.9
					c0,0-5.485-25.337-10.24-35.052c0,0,14.553,20.878,14.592,38.068c0,0,1.563-43.847-17.852-63.328c0,0,23.247,17.997,21.7,62.507
					c0,0-0.495-31.53,8.312-46.821c0,0-6.347,36.067-4.268,49.508c0,0,7.829-42.063,24.518-55.17c0,0-21.839,42.212-18.151,64.304
					c0,0,8.879-35.66,22.959-46.948c0,0-16.114,33.181-15.539,53.254l-32.428-1.127c0,0,4.326-23.723-15.106-41.587
					C509.866,474.372,523.457,486.304,530.775,504.702z"/>
			</g>
			<g style="clip-path:url(#SVGID_00000095302952153970294170000008906107218208780980_);">
				<path style="fill:#BB6644;" d="M725.033,487.524l-1.182-1.269c0,0,0.076-0.445,0.226-1.21
					c-6.021-18.03,11.569-28.028,11.569-28.028C738.465,476.509,725.033,487.524,725.033,487.524z"/>
				<path style="fill:#BB6644;" d="M726.477,493.217c-3.893-3.941-7.584-7.11-11.016-9.658c-4.482,1.237-19.977,4.205-26.949-11.376
					c0,0,11.738-10.308,28.188,10.994c0,0-0.061,0.022-0.171,0.059c3.747,2.86,6.76,5.713,8.67,7.655
					c-5.233-9.357-11.155-17.994-15.856-24.393c-0.015,0.298-0.019,0.588-0.043,0.893c0,0-19.356,1.034-17.745-25.423
					c0,0,18.462,4.84,17.812,24.047c1.58,2.023,3.072,3.994,4.497,5.922c1.001-22.536,15.542-30.895,15.542-30.895
					c0.107,14.298-10.938,26.695-14.484,30.305c-0.163,0.756-0.198,1.124-0.198,1.124l-0.371-0.556
					c-0.116,0.114-0.217,0.211-0.295,0.286c8.859,12.016,14.779,22.175,18.682,30.632l-0.04-0.089c0,0-0.046-1.99,0.897-5.718
					c0,0-0.004,0.001-0.004,0.001c-6.323-17.345,15.324-29.374,15.324-29.374c2.942,20.965-10.923,27.709-14.498,29.086
					c-0.833,2.979-1.228,5.713-0.881,7.862c10.133,22.977,5.047,32.747,5.047,32.747l-1.815-0.825
					c2.526-8.102,0.587-18.282-3.44-28.663c-1.02-0.56-3.146-1.676-6.001-2.947c-5.191,3.216-21.56,9.898-34.212-6.265
					c0,0,19.636-11.223,35.859,4.925c0.066,0.066-0.206,0.347-0.762,0.751c1.526,0.728,3.089,1.539,4.687,2.443
					C731.078,502.221,728.871,497.654,726.477,493.217z"/>
				<path style="fill:#BB6644;" d="M712.581,469.21l-1.118-0.559c0,0-0.019-4.418,0.228-9.99
					c-6.617-16.181,3.719-22.801,3.719-22.801c5.003,13.065-1.034,21.141-2.857,23.179
					C712.305,463.594,712.231,467.587,712.581,469.21z"/>
			</g>
		</g>
	</g>
	<g>
		<path style="fill:#944325;" d="M514.703,139.726c0,0,1.618-11.41,14.547-7.588C529.25,132.138,527.746,142.928,514.703,139.726z"
			/>
		<path style="fill:#944325;" d="M503.46,256.351c0,0-0.297,9.108-10.787,7.208C492.673,263.559,492.933,254.949,503.46,256.351z"/>
		<path style="fill:#944325;" d="M72.12,142.807c0,0,10.418-4.928,14.341,7.971C86.461,150.778,76.625,155.459,72.12,142.807z"/>
		<path style="fill:#C44C20;" d="M578.994,181.178c0,0-1.37,7.022-9.263,4.236C569.731,185.414,571.01,178.773,578.994,181.178z"/>
		<path style="fill:#C44C20;" d="M105.412,255.713c0,0-6.184,3.598-9.291-4.174C96.12,251.539,101.958,248.124,105.412,255.713z"/>
		<path style="fill:#D27E2C;" d="M558.606,118.711c0,0-0.79-13.454,12.887-12.963C571.492,105.748,573.933,118.643,558.606,118.711z
			"/>
		<path style="fill:#B34624;" d="M219.241,81.207c0,0,12.862-4.025,15.698,9.363C234.939,90.571,223.02,96.061,219.241,81.207z"/>
		<path style="fill:#B34624;" d="M120.561,39.982c0,0,9.986-3.125,12.188,7.27C132.749,47.252,123.495,51.515,120.561,39.982z"/>
		<path style="fill:#D27E2C;" d="M157.389,64.248c0,0,12.862-4.026,15.698,9.363C173.087,73.611,161.167,79.102,157.389,64.248z"/>
	</g>
	<g>
		<circle style="fill:#EA8B34;" cx="516.098" cy="87.729" r="30.926"/>
		<g>
			<path style="fill:#D28C36;" d="M429.779,115.362c0,0,3.383-2.706,10.938,6.54c0,0,1.015-13.081,6.315-13.87
				c0,0-7.33-1.579-7.33,8.683C439.703,116.715,431.358,108.596,429.779,115.362z"/>
			<path style="fill:#D28C36;" d="M436.911,89.818c0,0,6.112,2.385,7.901,5.069c0,0,0.298-6.56,2.385-9.243
				c0,0-3.429-0.149-3.727,4.323C443.471,89.967,436.911,85.644,436.911,89.818z"/>
			<path style="fill:#D28C36;" d="M472.699,117.696c0,0,6.112,2.385,7.901,5.069c0,0,0.298-6.56,2.385-9.243
				c0,0-3.429-0.149-3.727,4.323C479.258,117.845,472.699,113.522,472.699,117.696z"/>
			<path style="fill:#D28C36;" d="M475.336,55.914c0,0,6.112,2.385,7.901,5.069c0,0,0.298-6.56,2.385-9.243
				c0,0-3.429-0.149-3.727,4.323C481.895,56.063,475.336,51.74,475.336,55.914z"/>
		</g>
	</g>
</g>
</svg>
