<?xml version="1.0" encoding="utf-8"?>
<!-- Generator: Adobe Illustrator 27.5.0, SVG Export Plug-In . SVG Version: 6.00 Build 0)  -->
<svg version="1.1" id="Layer_1" xmlns="http://www.w3.org/2000/svg" xmlns:xlink="http://www.w3.org/1999/xlink" x="0px" y="0px"
	 viewBox="0 0 400 655" xml:space="preserve">
<g>
	<linearGradient id="SVGID_1_" gradientUnits="userSpaceOnUse" x1="-64.348" y1="182.3331" x2="385.1853" y2="631.8664">
		<stop  offset="0.3135" style="stop-color:#AF7324"/>
		<stop  offset="0.8486" style="stop-color:#774707"/>
	</linearGradient>
	<path style="fill:url(#SVGID_1_);" d="M291.477,635.857c-8.175-0.57-16.304-1.594-24.366-3.413
		c-14.536-3.281-29.827-3.168-44.314,0.325c-5.318,1.283-10.583,3.022-16.047,3.303c-4.674,0.241-9.329-0.596-13.934-1.429
		c-13.265-2.4-27.682-2.54-40.353-6.748c-13.571-4.507-25.095-8.391-39.046-1.697c-19.457,9.336-37.811,7.861-57.088-0.395
		c-0.736-0.315-1.513-0.663-1.959-1.328c-0.855-1.272-0.111-2.98,0.708-4.276c3.272-5.18,7.707-9.621,12.882-12.901
		c2.199-1.394,4.557-2.603,6.409-4.435c9.679-9.577,11.775-31.569,14.091-44.247c2.889-15.812,2.096-31.163-1.451-46.817
		c-3.314-14.625-8.809-31.173-6.461-46.345c2.546-16.444,14.402-25.855,17.344-41.654c4.203-22.568,8.469-44.603,6.338-67.707
		c-1.295-14.038-4.139-27.982-3.908-42.077c0.311-18.91,12.958-37.999,9.048-57.075c-4.443-21.676-15.71-41.404-31.18-57.625
		c-2.157-2.261-4.418-4.575-5.493-7.509c-1.51-4.122-0.423-8.683-0.506-13.073c-0.156-8.267-4.464-15.81-8.652-22.941
		c-10.913-18.583-31.688-38.034-48.906-50.582c1.707,0.854,28.5-7.982,32.408-8.961c2.736-0.686,10.332-3.889,12.366-3.894
		c6.081-0.017,6.813,2.661,13.54,5.095c2.039-5.075,4.551-10.423,9.316-13.109c16.407-9.251,24.631,16.157,35.279,20.698
		c0.87-10.095-3.821-17.265-9.751-25.544c-1.739-2.427-15.2-13.045-14.869-14.245c3.482-12.621,2.927-26.323-1.563-38.622
		c14.758-8.804,57.654,50.714,62.286,64.463c4.002,11.879,17.596,20.79,22.686,34.457c3.74,10.043,6.092,20.727,11.63,29.901
		c7.203,11.932,17.371,9.211,25.579,16.025c8.715,7.235,10.637,20.06,14.344,31.509c9.049,27.945-0.374,33.094-6.023,59.158
		c-5.192,23.956,1.811,49.152,8.253,72.145c9.737,34.752,19.473,69.504,29.21,104.256c3.518,12.555,7.434,25.783,16.992,34.652
		c6.982,6.478,16.208,9.874,24.253,14.972c24.618,15.6,34.899,43.97,47.079,71.289c5.971,13.392,12.398,26.531,21.193,37.79
		c6.681,8.551,22.786,26.6,13.259,37.676c-7.651,8.895-39.807,2.578-49.491,1.57C318.84,636.493,305.095,636.805,291.477,635.857z"
		/>
	<path style="opacity:0.5;fill:#845021;" d="M142.472,272.408c-2.314,0.588-2.768,38.268,0.014,41.655
		c1.342,1.635,3.229,2.863,4.138,4.773c0.786,1.652,0.718,3.564,0.664,5.393c-0.283,9.484,1.069,17.19,4.775,25.744
		c3.305,7.628,6.622,15.207,9.75,22.914c1.256,3.095,2.52,6.219,3.092,9.509c0.495,2.848,0.459,5.758,0.422,8.648
		c-0.036,2.83-0.072,5.66-0.109,8.491c-0.006,0.504-0.062,1.098-0.494,1.357c-0.368,0.22-0.837,0.087-1.238-0.063
		c-4.681-1.756-8.665-5.301-10.953-9.746c-6.858,4.308-3.734,25.547-7.459,33.142c-5.69-4.043-11.758-7.553-18.099-10.469
		c10.91-16.581,13.896-33.666,13.703-52.928c-0.092-9.249-4.323-13.001-12.791-13.664c-0.69-14.725-0.034-29.527-1.042-44.311
		c-1.142-16.75,2.348-33.278,6.107-49.499C131.865,258.04,134.794,274.357,142.472,272.408z"/>
	<path style="opacity:0.5;fill:#845021;" d="M108.912,138.952c6.111,7.219,12.283,14.528,16.509,22.991
		c2.631,5.268,5.049,11.745,4.923,17.733c-0.126,6.026-3.018,11.152-1.81,17.449c0.604,3.148,1.858,6.132,2.697,9.226
		c2.071,7.637,1.561,15.706,1.035,23.601c-0.026,0.387-0.068,0.811-0.346,1.082c-0.611,0.593-1.6-0.077-2.116-0.755
		c-3.405-4.47-4.065-10.162-6.472-15.106c-2.902-5.959-7.216-8.68-12.1-12.913c-1.792-1.554-3.754-3.519-3.462-5.873
		c2.601-0.278,11.409,0.734,13.247-1.147c0.994-1.018,1.134-2.578,1.139-4.001c0.032-9.271,0.723-17.852-1.903-27.008
		C117.717,155.391,113.727,146.778,108.912,138.952z"/>
	<path style="opacity:0.7;fill:#74481C;" d="M218.938,407.792c1.62-4.909,1.713-10.175,1.712-15.345
		c-0.002-8.948-0.252-17.975-2.328-26.678c-1.748-7.326-4.909-14.45-9.796-20.129c0.179-0.29,0.376-0.57,0.531-0.876
		c1.492-2.931,1.629-6.375,1.258-9.643c-1.144-10.09-9.102-20.275-20.084-19.584c-14.088,0.886-17.711,14.97-18.607,26.473
		c-0.432,5.547-0.405,11.111-0.433,16.67c-0.011,2.21,0.192,11.255-4.294,8.394c-6.368-4.062-10.548-7.703-13.512-14.65
		c-0.506-1.185-0.916-2.455-1.26-3.765c-0.712-2.709-1.139-5.586-1.538-8.222c-1.148-7.583-1.874-15.23-2.173-22.894
		c-1.28-0.32-2.509-0.846-3.624-1.551c-0.296,9.228-0.007,18.474,0.864,27.666c0.579,6.104,1.415,12.208,1.255,18.336
		c-0.134,5.136-0.968,10.229-1.928,15.276c-0.941,4.95-2.028,9.944-4.325,14.428c-2.825,5.516-10.083,13.048-17.035,11.09
		c-3.689-1.039-5.472-6.941-6.794-10.192c0.206,5.883,1.112,11.717,2.017,17.534c0.192,1.238,0.41,2.536,1.188,3.518
		c0.511,0.646,1.222,1.098,1.918,1.537c2.994,1.889,7.372,3.067,9.265,6.16c1.955,3.195,2.778,7.748,3.27,11.402
		c1.311,9.74-1.726,18.744-2.115,28.394c-0.292,7.237,2.055,14.28,3.947,21.272c1.892,6.992,3.343,14.46,1.288,21.405
		c-0.695,2.349-1.856,4.671-3.837,6.113c-2.366,1.723-5.477,1.921-8.4,2.057c1.724,2.907,5.312,4.092,8.65,4.625
		c3.398,0.542,8.116,0.691,11.437-0.285c1.876-0.551,3.647-1.845,4.244-3.706c0.538-1.676,0.062-3.49-0.429-5.18
		c-1.667-5.738-4.336-10.68-6.493-16.225c-2.828-7.27-3.673-16.024-3.04-23.754c-0.018,0.214,3.726,2.784,4.145,3.181
		c1.447,1.367,2.167,2.568,3.048,4.438c1.775,3.765,3.093,7.728,4.186,11.74c2.167,7.949,3.42,16.112,5.516,24.079
		c1.039,3.948,1.784,8.016,2.838,12.008c0.863,3.267,1.673,6.956-0.07,9.85c-1.415,2.35-4.473,3.569-7.116,2.838
		c0.519,3.007,2.311,5.773,4.843,7.477c1.733,1.166,3.84,1.844,5.919,1.641c2.079-0.203,4.1-1.356,5.121-3.178
		c0.81-1.444,0.952-3.159,0.985-4.813c0.094-4.806-0.897-9.151-1.94-13.784c-0.945-4.193-1.021-8.565-2.226-12.759
		c-1.521-5.297-3.589-12.686-3.589-18.194c0-22.082-3.808-43.843-2.376-66.205c0.711-11.102,2.181-27.259,7.297-37.262
		c1.771-3.462,4.902-3.1,6.966-0.742c7.397-3.895,2.188-21.146,4.249-28.713c2.949,11.491,10.128,38.289,4.256,49.475
		c-7.922,15.091-6.16-11.606-10.205-13.964c-1.775-1.035-4.169,0.399-4.893,2.324c-1.551,4.122,0.48,12.211,0.271,16.801
		c-0.292,6.441-0.867,12.946-0.867,19.393c-0.574,12.841-3.673,23.731,1.305,36.207c0.247,0.618,0.517,1.248,0.985,1.721
		c3.042,3.075,9.954-3.851,10.339,4.06c0.178,3.661-3.811,6.049-5.269,9.413c-1.04,2.399-0.718,5.141-0.378,7.733
		c0.406,3.09,0.812,6.179,1.218,9.269c0.079,0.604,0.142,1.278-0.222,1.767c-0.494,0.663-1.471,0.632-2.268,0.854
		c-4.73,1.319-1.615,11.801,0.433,14.235c6.444,7.66,16.954,3.97,23.785-1.054c4.752-3.495,8.204-4.125,6.937-10.289
		c-1.245-6.055-1.78-12.226-1.5-18.404c0.243-5.347-0.661-12.282,2.951-16.648c5.098-6.161,7.078-9.314,6.139-17.659
		c-0.988-8.776-4.007-16.101-1.781-24.862C210.765,421.58,216.419,415.427,218.938,407.792z M154.997,421.443
		c-1.584,7.759-2.35,15.902-3.666,23.775c-0.534,3.195-1.097,6.471-2.738,9.263c-1.268,2.157-6.021,6.849-8.577,3.859
		c-2.013-2.355,0.358-10.912,0.594-13.796c0.884-10.828,3.147-21.471,5.469-32.065c1.152-5.255,1.909-10.76,3.376-15.928
		c0.748-2.637,1.129-2.911,3.753-1.116c1.752,1.198,3.141,2.934,3.865,4.934C159.564,407.245,156.377,414.686,154.997,421.443z
		 M186.52,346.65c0.173,2.881,0.583,5.754,0.536,8.643c-0.042,2.591-0.449,5.16-0.855,7.719c-0.519,3.271-1.039,6.542-1.558,9.813
		c-1.211-0.113-1.546-1.695-1.625-2.909c-0.423-6.483-2.64-12.701-3.848-19.086c-0.954-5.046-1.27-10.884,0.491-15.789
		c1.539-4.286,3.708-7.662,8.436-8.955c3.33-0.91,7.043-0.31,9.917,1.605c0.653,0.435,1.336,1.156,1.075,1.896
		c-0.192,0.545-0.806,0.795-1.35,0.989c-5.621,2.001-11.031,6.348-11.273,12.776C186.423,344.453,186.455,345.552,186.52,346.65z
		 M200.82,408.118c-1.359-0.604-2.771-1.18-4.257-1.249c-1.487-0.069-3.082,0.46-3.933,1.681c-1.915,2.746-0.231,8.608,0.022,11.766
		c0.352,4.41,1.204,8.75,1.702,13.143c0.113,0.993-0.054,2.364-1.048,2.46c-0.75,0.072-1.27-0.708-1.592-1.39
		c-4.291-9.088-5.866-20.161-3.642-30.01c0.228-1.008,0.428-1.991,0.672-2.876c0.774-2.808,1.99-4.632,5.932-3.187
		c1.995,0.732,3.755,2.314,4.838,4.124C199.841,403.126,201.024,408.208,200.82,408.118z M207.238,393.858
		c-8.494,1.662-7.322-14.701-7.414-18.585c-0.199-8.399-0.206-17.455,4.662-24.302c0.763-1.073,1.634-2.074,2.461-3.102
		c3.063,13.072,4.268,26.58,3.548,39.987C210.362,390.314,209.656,393.383,207.238,393.858z"/>
	<path style="opacity:0.7;fill:#74481C;" d="M220.434,208.115c3.253-14.337,1.582-32.628-13.069-39.13
		c-5.836-2.59-12.455-2.878-18.807-2.221c-1.963,0.203-3.941,0.492-5.902,0.269c-5.774-0.658-6.341-5.493-8.376-9.958
		c-2.273-4.987-3.782-10.102-5.084-15.375c-1.812-7.338,0.097-15.409-3.341-22.154c-1.659-3.255-4.013-6.101-6.45-8.822
		c-2.649-2.958-6.203-5.534-8.665-8.525c-2.188-2.658-2.526-6.463-3.313-9.761c-3.998-16.759-14.975-31.739-29.752-40.598
		c-0.503-0.302-1.109-0.605-1.65-0.379c-0.531,0.222-0.743,0.848-0.896,1.403c-2.045,7.433-6.053,13.208-8.181,20.705
		c-1.983,6.985-3.867,14.887-2.335,22.144c1.563,7.403,6.003,12.727,9.929,18.849c3.759,5.863,5.894,11.118,12.821,14.071
		c1.449,0.618,2.998,1.101,4.201,2.118c0.997,0.842,1.68,1.991,2.292,3.143c3.144,5.925,3.422,11.654,4.974,17.938
		c0.961,3.888,2.74,9.202,1.49,13.24c-0.943,3.045-5.007,6.858-8.323,4.472c-1.503-1.082-2.728-3.503-4.421-2.752
		c3.006,6.931,3.2,16.588,2.124,23.984c2.575,0.325,4.189,2.873,5.388,5.176c1.97,3.784,4.499,7.346,6.422,11.02
		c2.418,4.618,2.412,10.305,3.281,15.341c1.086,6.287,2.174,12.597,2.412,18.972c0.294,7.869-0.711,15.721-1.714,23.531
		c5.517-7.103,5.62-16.87,5.479-25.863c-0.118-7.492-0.242-15.037-1.758-22.375c-1.142-5.53-3.106-10.951-3.594-16.603
		c-0.097-1.123,2.109-12.935,2.371-12.562c5.002,7.097,4.567,13.967,6.504,21.878c2.038,8.325,2.957,17.111,3.697,25.634
		c1.47,16.932,1.152,34.011-0.652,50.904c-0.314,2.936-0.704,5.953-2.149,8.527c-4.203,7.489-11.238,4.3-14.779-1.659
		c-0.238,6.782-2.344,19.127,3.931,23.901c2.901,2.208,10.106,1.711,12.121-1.994c0.289-0.531,0.338-1.155,0.381-1.759
		c0.488-6.866,0.223-13.898,1.97-20.613c0.831-3.194,2.073-6.377,4.262-8.9c0.48-0.553,7.692-5.646,7.742-4.321
		c0.25,6.562-3.719,12.433-5.845,18.647c-1.881,5.499-2.869,12.689-3.036,18.483c-0.039,1.352-0.011,2.72-0.315,4.037
		c-0.523,2.261-2.063,4.266-4.112,5.353c-0.438,0.233-0.961,0.51-1.012,1.003c-0.028,0.271,0.104,0.53,0.231,0.771
		c0.769,1.451,1.537,2.901,2.306,4.352c4.308,8.13,8.874-5.663,10.237-9.588c2.27-6.538,3.486-13.384,5.416-20.021
		c2.466-8.483,3.04-17.381,4.714-26.027c0.954-4.928,3.314-20.2,9.301-21.167c-2.824,0.456-2.988,21.432-2.987,24.056
		c0.002,5.133,2.873,18.454-6.153,17.915c-0.459-0.027-0.969-0.094-1.336,0.182c-0.251,0.189-0.376,0.499-0.467,0.799
		c-1.593,5.237,3.535,11.883,8.253,13.522c3.316,1.152,7.174,0.599,10.033-1.436c5.518-3.928,6.252-11.736,6.085-18.507
		c-0.34-13.727-1.577-24.68,3.362-37.796c2.239-5.945,3.691-12.168,4.497-18.465c0.332-2.593,0.004-5.66,1.015-8.059
		c0.989-2.349,2.876-4.221,4.293-6.304c0.904-1.328,1.65-2.758,2.284-4.236c0.225-0.524,0.436-1.055,0.635-1.589
		C219.201,212.824,219.887,210.525,220.434,208.115z M163.18,166.52c0.198,0.311,0.388,0.628,0.569,0.946
		c4.213,7.39,5.759,19.135,6.559,27.525c0.514,5.385,2.011,9.939-1.012,14.973c-0.295,0.49-0.679,1.007-1.243,1.102
		c-0.505,0.086-0.992-0.194-1.428-0.463c-2.603-1.606-6.236-3.795-7.954-6.441c-1.938-2.983-1.344-6.969-1.83-10.353
		c-0.885-6.163-3.988-11.873-4.605-18.069c-0.276-2.775-0.416-10.369,1.579-12.729C156.694,159.608,161.528,163.929,163.18,166.52z
		 M174.13,254.696c-0.232,0.945-0.47,1.888-0.708,2.83c-0.909,3.595-4.341,7.447-8.569,6.075
		c-0.395-0.128,2.652-17.686,2.535-19.868c-0.42-7.836-1.794-15.743-2.683-23.542C176.658,227.33,177.045,242.812,174.13,254.696z"
		/>
	<path style="fill:#7F4F08;" d="M110.578,531.756c-2.977,18.446-5.953,36.893-8.93,55.34c-0.39,2.415-0.804,4.899-2.081,6.986
		c-1.423,2.325-3.762,3.91-6.03,5.422c-5.785,3.857-11.57,7.715-17.355,11.572c-4.079,2.72-8.312,5.503-13.139,6.356
		c-1.973,0.349-3.88,0.082-5.696-0.419c-0.798,1.032-1.574,2.082-2.271,3.185c-0.819,1.296-1.563,3.004-0.708,4.276
		c0.446,0.664,1.223,1.013,1.959,1.328c19.277,8.256,37.631,9.731,57.088,0.395c0.748-0.359,1.486-0.673,2.221-0.973
		c0.797-2.324,1.513-4.674,2.06-7.054c3.055-13.299,2.568-27.158,1.158-40.73C117.255,562.032,114.485,546.746,110.578,531.756z"/>
	<path style="fill:#663403;" d="M368.84,597.247c-8.795-11.259-15.222-24.398-21.193-37.79
		c-12.18-27.319-22.462-55.69-47.079-71.289c-8.045-5.098-17.271-8.494-24.253-14.972c-9.558-8.869-13.474-22.097-16.992-34.653
		c-9.736-34.752-19.473-69.504-29.209-104.256c-6.442-22.992-13.446-48.189-8.253-72.145c5.649-26.065,15.072-31.213,6.023-59.158
		c-3.707-11.449-5.63-24.274-14.344-31.51c-8.208-6.814-18.376-4.093-25.579-16.025c-5.538-9.175-7.89-19.859-11.63-29.902
		c-5.09-13.668-18.684-22.579-22.686-34.457c-4.632-13.749-47.528-73.267-62.286-64.463c1.853,5.076,3.07,10.42,3.545,15.805
		c0.375,4.249-0.904,9.159,0.686,13.229c2.079,5.324,9.992,5.31,13.73,9.635c5.796,6.706,7.836,16.736,13.112,24.037
		c5.429,7.514,8.147,14.903,12.535,22.956c0.778,1.428,1.562,2.869,2.013,4.431c0.473,1.635,0.588,3.413,1.48,4.862
		c0.809,1.313,2.152,2.183,3.325,3.186c4.682,4.003,9.436,15.016,7.95,21.196c-0.562,2.336-1.944,4.377-2.932,6.568
		c-1.199,2.662-1.631,6.053-1.232,8.949c0.118,0.854,3.865,9.463,4.335,8.882c1.48-1.826,1.226-4.446,1.713-6.745
		c0.853-4.027,4.942-4.481,8.348-3.764c5.095,1.074,8.865,5.392,11.494,9.886c6.078,10.388,6.586,22.266,6.604,33.989
		c0.01,6.096-2.791,24.341-11.561,12.935c-2.24-2.914-4.27-5.989-6.069-9.195c2.869,5.112,2.633,13.385,1.83,18.961
		c-1.281,8.891,1.06,18.192-1.119,27.022c2.767-5.894,4.284-12.371,4.425-18.88c0.094-4.356-0.826-9.915,5.074-10.68
		c3.822-0.495,9.562,0.343,11.471,4.128c4.159,8.247,2.893,18.605,1.039,27.31c-1.621,7.611-4.083,19.61-12.352,22.752
		c-9.425,3.581-4.426-7.376-8.296-8.88c-0.353,0.23-0.546,0.569-0.626,0.981c-2.155,10.972-4.003,22.095-5.548,33.164
		c0,7.012-2.018,14.288,0.059,21.269c1.765,5.93,5.174,11.873,7.423,17.776c1.16,3.044,2.327,6.117,2.809,9.339
		c0.411,2.749,0.146,5.935-1.985,7.719c-3.089,2.586-8.113,0.411-10.166-3.055c2.985,5.477,9.208,13.74,9.748,20.037
		c0.613,7.148-3.295,11.061-5.363,17.164c-2.031,5.994-0.329,11.418,0.8,17.613c0.658,3.61,0.437,7.315,0.214,10.978
		c-0.336,5.519-0.672,11.038-1.007,16.557c3.038-8.249,4.526-17.066,4.364-25.858c-0.129-6.978,5.109-20.952,9.229-7.465
		c2.762,9.046-2.61,18.745-3.585,27.694c-1.073,9.854-1.937,23.755,2.271,32.989c-0.166-7.046,0.82-14.118,2.907-20.85
		c2.648,5.317,4.013,11.267,3.947,17.206c-0.018,1.647-0.094,3.457,0.932,4.745c1.289,1.618,3.72,1.688,5.451,2.82
		c2.045,1.338,2.812,3.917,3.431,6.281c1.174,4.49,3.559,9.847,3.792,14.465c0.193,3.838-1.404,6.096-1.709,9.917
		c-0.209,2.619,1.181,5.069,2.524,7.327c1.768,2.973,3.536,5.946,5.303,8.918c2.026,3.408,3.908,8.185,1.029,10.911
		c-3.557-3.454-8.538-5.395-13.495-5.259c8.814,7.733,17.032,18.481,20.165,29.983c2.545,9.344,1.715,21.438-1.49,30.54
		c-0.374,1.063-0.961,2.265-2.07,2.465c-1.392,0.25-2.423-1.221-3.064-2.482c-2.17-4.275-4.341-8.551-6.512-12.826
		c-0.015,4.267,0.227,8.535,0.725,12.772c0.281,2.388,0.662,4.826,1.826,6.93c1.164,2.104,3.271,3.836,5.68,3.922
		c6.537,0.225,8.053-2.59,9.914,4.95c1.374,5.567-0.886,12.679-4.612,16.85c-5.291,5.924-15.43,7.381-21.34,2.076
		c-6.128-5.501-7.762-11.728-7.194-19.815c0.688-9.784,3.107-19.626,3.243-29.376c0.071-5.089-0.717-10.434-1.782-15.405
		c-2.956-13.703-5.702-27.781-9.26-41.541c-1.18-4.564-2.36-9.127-3.54-13.691c-2.428-9.388-9-15.977-9.397-26.444
		c-0.111-2.934,0.114-5.876-0.096-8.805c-0.2-2.8-0.799-5.572-1.774-8.204c-0.461,5.273-1.353,11.296-5.81,14.152
		c15.907,16.668,17.384,45.672,16.762,67.527c-0.152,5.356-3.873,7.138-8.168,3.42c-1.909-1.652-3.817-3.304-5.725-4.955
		c0.118,2.921,0.948,5.811,2.398,8.349c0.815,1.427,1.82,2.739,2.928,3.952c1.884,2.063,10.289,6.122,10.703,8.757
		c1.06,6.737,11.677,54.511-6.444,51.077c-9.383-1.763-8.27-23.604-16.657-29.666c-2.059,10.43,5.585,37.696-12.87,36.832
		l-14.159-0.663c-0.845,3.604-0.147,7.365,1.417,10.759c11.529-3.425,21.714-0.019,33.417,3.868
		c12.671,4.208,27.087,4.348,40.353,6.748c4.605,0.833,9.26,1.67,13.934,1.429c5.464-0.281,10.728-2.021,16.047-3.303
		c14.487-3.494,29.778-3.606,44.314-0.325c8.061,1.819,16.191,2.844,24.366,3.413c13.618,0.949,27.363,0.636,41.132,0.636
		c9.684,1.008,41.84,7.325,49.491-1.57C391.626,623.847,375.521,605.798,368.84,597.247z M143.41,93.771
		c-0.393,2.094-0.787,4.187-1.18,6.281c-0.08,0.425-0.228,0.928-0.644,1.043c-0.515,0.143-0.928-0.42-1.167-0.899
		c-1.337-2.681-2.678-5.371-3.727-8.175c-0.143-0.381-0.28-0.764-0.411-1.15c-0.655-1.925-1.184-3.96-2.455-5.548
		c-0.714-0.893-1.633-1.603-2.361-2.485c-2.788-3.382-3.969-9.194-6.056-13.218c-2.437-4.7-6.545-9.834-7.151-15.201
		c0.128,1.131,7.627,5.892,8.815,7.078c2.954,2.95,5.561,6.248,7.756,9.799c1.934,3.127,4.068,6.461,5.194,9.982
		c0.954,2.984,3.206,6.696,3.609,9.709C143.756,91.915,143.582,92.853,143.41,93.771z M163.883,145.591
		c-0.529-0.525-0.823-1.236-1.104-1.926c-1.387-3.413-2.644-6.518-3.311-10.085c-0.686-3.668-1.403-7.413-3.51-10.573
		c-1.377-2.052-3.049-3.959-4.52-5.966c-2.814-3.839-0.233-6.118,4.009-4.803c3.354,1.04,5.878,3.972,7.161,7.241
		c1.359,3.465,1.058,6.071,0.769,9.138c-0.087,0.919-0.172,1.879-0.212,2.916c-0.191,4.971,0.772,10.009,2.757,14.569
		C165.243,146.411,164.412,146.116,163.883,145.591z M170.072,296.67c-1.919,5.161-4.577,10.152-5.207,15.622
		c-0.652,5.665,0.835,11.867-2.033,16.796c-0.405,0.697-3.547-9.304-3.889-10.923c-0.013-0.063-0.022-0.113-0.027-0.149
		c-0.638-5.141,0.827-10.974,1.327-16.163c0.498-5.174,1.351-17.706,7.939-19.116C174.865,281.308,171.125,293.84,170.072,296.67z
		 M222.288,460.493c0.87,4.566,3.517,22.95,5.681,25.787c-7.15-9.375-11.865-18.056-13.437-29.503
		c-0.968-7.049-1.979-13.924-1.635-21.075c0.144-2.986,3.852-14.809,2.764-16.772c2.352,4.242,2.712,9.083,2.922,13.999
		C218.97,442.026,220.594,451.594,222.288,460.493z M212.849,406.583c-13.956-13.674-15.382-39.527-6.221-56.324
		c0.378-0.693,0.867-1.444,1.642-1.597c1.441-0.284,2.268,1.565,2.538,3.008c0.696,3.719,1.368,7.442,2.016,11.169
		c2.352,13.523,6.332,26.99,4.911,40.69c-0.202,1.952-1.214,4.498-3.146,4.159C213.902,407.567,213.348,407.071,212.849,406.583z
		 M191.479,168.293c0.862-0.838,2.232-0.779,3.423-0.616c1.988,0.273,3.927,0.674,5.787,1.212
		c9.029,2.611,18.794,10.422,18.868,20.5c0.019,2.517-0.502,5.003-1.02,7.466c-1.432,6.807-2.864,13.613-4.296,20.42
		c-0.19,0.905-0.905,2.08-1.715,1.634c-0.481-0.265-0.52-0.929-0.494-1.478c0.215-4.524,0.693-9.067,0.204-13.569
		c-1.269-11.661-9.611-22.664-18.613-29.734C191.764,172.669,189.785,169.941,191.479,168.293z M184.102,212.934
		c-0.4-6.263,1.062-11.689,1.49-17.759c0.223-3.159-1.291-8.192-0.197-11.075c0.386-1.014,1.111-1.834,2.33-2.329
		c6.503-2.639,16.969,12.947,17.346,18.251c0.229,3.214-0.462,6.413-0.734,9.624c-0.429,5.064,0.181,10.202-0.627,15.219
		c-0.96,5.971-3.865,11.426-6.726,16.754c-2.114,3.937-5.357,8.486-9.779,7.845C188.49,237.151,184.883,225.141,184.102,212.934z
		 M178.579,290.508c0.106-6.026,1.077-12.034,2.743-17.823c1.376-4.784,2.807-12.132,5.972-16.016
		c1.225-1.502,3.025-2.659,4.963-2.637c1.504,4.31-0.989,8.922-1.225,13.481c-0.025,0.492-0.003,1.041,0.342,1.393
		c0.33,0.337,0.848,0.383,1.278,0.579c0.945,0.43,1.374,1.53,1.57,2.549c1.27,6.594-1.729,12.727-2.915,19.149
		c-0.611,3.311-0.74,6.699,0.446,10.267c0.521,1.566,1.221,3.143,1.099,4.788c-0.6,8.107-11.869-2.283-13.075-5.574
		C178.598,297.445,178.519,293.937,178.579,290.508z M195.724,440.761c-2.139-1.825-5.262-2.326-7.117-4.439
		c-1.388-1.581-1.8-3.769-2.149-5.843c-3.428-20.4,1.753-42.007-5.368-61.52c-3.387-9.28-8.796-37.836,1.805-44.675
		c4.048-2.619,10.294-0.583,14.86-0.362c1.43,0.069,2.936,0.162,4.135,0.945c1.395,0.911,2.086,2.567,2.603,4.152
		c5.324,16.319-9.311,23.12-8.013,38.216c0.212,2.453,0.76,4.997-0.053,7.321c-0.813,2.324-3.74,4.121-5.773,2.731
		c-2.738,10.929-0.713,14.802,7.202,20.752c5.201,3.912,7.127,11.93,5.772,17.936c-0.823,3.645-1.991,7.276-2.482,10.955
		c-0.199,1.494-0.287,2.996-0.195,4.51c0.302,4.944,2.498,9.543,3.841,14.31c1.673,5.943,0.542,11.371-1.576,16.867
		C196.997,456.787,202.141,446.235,195.724,440.761z M228.955,606.814c-3.249-5.239-5.346-11.189-6.099-17.308
		c-0.624-5.074-0.447-10.579-2.845-14.975c-0.266-0.488-0.565-0.963-0.899-1.422c-1.007-1.381-2.314-2.558-3.082-4.086
		c-0.771-1.535-0.932-3.294-1.079-5.006c-1.231-14.271,0.001-28.882-4.979-42.493c-3.567-9.751-7.652-20.949-7.457-31.497
		c0.127-6.849,5.964-17.997,11.56-6.055c2.858,6.079,6.098,11.713,8.812,17.911c0.644,1.471,1.302,3.02,1.164,4.62
		c-0.138,1.6-1.372,3.228-2.978,3.209c-1.366-0.016-2.492-1.158-3.849-1.312c-3.023-0.343-4.242,3.986-3.377,6.903
		c3.226,10.876,1.442,22.121,2.664,33.354c0.647,5.947,4.123,12.372,10.026,13.347c1.001,0.165,2.072,0.179,2.932,0.716
		c0.736,0.46,1.204,1.235,1.645,1.982c2.442,4.138,4.963,9.036,3.235,13.518c-0.453,1.174-1.177,2.228-1.638,3.398
		c-1.024,2.598-0.672,5.507-0.306,8.275c0.906,6.838,1.812,13.676,2.719,20.514C232.714,611.368,230.322,609.019,228.955,606.814z
		 M241.107,550.217c-5.734-10.009-8.703-17.037-6.762-29.062c5.583,1.403,10.678,4.676,14.276,9.17
		c-1.126-1.406-6.681,1.415-7.446,2.505c-2.626,3.743,0.661,6.754,2.56,9.591c4.111,6.143,9.67,7.679,12.186,16.386
		c4.021,13.92-1.68,29.601,0.807,43.49c0.232,1.296,0.536,2.577,0.925,3.839C251.767,587.056,251.284,567.983,241.107,550.217z"/>
	<path style="opacity:0.9;fill:#74481C;" d="M111.928,196.55c-5.771-3.553-9.603-9.567-12.324-15.774
		c-3.576-8.159-5.514-16-10.996-23c-5.545-7.08-10.986-14.232-16.317-21.474c-5.723-7.774-10.292-15.729-14.969-24.236
		c-2.084-3.79-4.194-7.617-7.091-10.829c-1.503-1.666-3.198-3.136-4.997-4.478c-1.61,0.478-3.955,1.203-6.645,2.033
		c0.34,0.26,0.684,0.516,1.016,0.775c6.054,4.737,8.707,12.521,13.266,18.711c6.681,9.072,19.482,18.443,21.042,30.352
		c0.933,7.121-2.927,10.27-8.064,11.182c2.468,4.407,4.665,8.987,5.7,13.806c2.671-1.497,5.807-2.329,8.819-3.066
		c1.985-0.486,4.062-0.972,6.048-0.49c5.317,1.291,6.621,8.01,8.585,13.117c3.23,8.397,11.075,13.212,16.215,20.238
		c4.349,5.945,24.558,44.165,2.736,38.053c-2.484-0.696-4.787-1.929-7.249-2.699c0.57,0.178,3.366,5.828,4.454,6.762
		c2.539,2.179,5.783,3.576,9.138,3.357c5.585-0.364,12.249-4.611,10.691,5.91c-1.41,9.52-2.82,19.041-4.231,28.561
		c0.677-4.571,4.354-9.738,5.623-14.388c1.471-5.393,2.328-10.954,2.554-16.539c0.411-10.16-1.065-20.525-1.182-30.726
		C133.586,207.783,121.991,202.745,111.928,196.55z"/>
	<path style="opacity:0.9;fill:#74481C;" d="M107.11,138.564c13.326,16.594,23.297,31.156,20.946,53.446
		c0.485,0.712,1.678,0.513,2.217-0.159c0.539-0.672,0.607-1.595,0.653-2.455c0.253-4.761,0.505-9.521,0.758-14.282
		c0.18-3.388,0.342-6.894-0.871-10.063c-1.502-3.922-4.909-6.61-6.757-10.311c-1.895-3.795-2.858-7.802-5.215-11.626
		c-4.976-8.073-10.853-15.586-17.49-22.358c-3.819-3.896-8.495-7.13-12.092-11.171c-3.354-3.769-5.538-7.929-10.007-10.789
		c-5.16-3.302-7.929-7.065-10.06-12.753c3.724,9.941,5.948,17.492,14.179,25.458c8.421,8.15,15.636,16.98,23.062,26.22
		C106.658,138.001,106.884,138.283,107.11,138.564z"/>
	<path style="fill:#663403;" d="M146.592,357.781c3.111,13.925,2.428,28.203,0.366,42.241c5.29-14.582,5.245-28.113,3.931-43.247
		c-1.068-12.306-7.084-27.033-3.656-39.127c-1.103-1.423-2.177-2.867-3.224-4.332c-2.526,10.788-1.955,23.131,0.253,33.921
		C144.983,350.763,145.808,354.272,146.592,357.781z"/>
	<path style="fill:#7F4F08;" d="M142.024,445.868c0.911-7.003-0.326-14.13,0.226-21.171c0.504-6.434,2.842-12.487,3.962-18.884
		c-3.24,4.178-5.422,9.564-11.285,9.03c-5.049-0.46-9.765-4.443-11.195-9.256c-2.866-9.647,0.706-20.57,1.638-30.265
		c0.518-5.389,0.583-11.329,1.881-16.59c0.899-3.643,2.652-5.833,3.913-9.328c1.396-3.87,0.882-8.134,0.349-12.213
		c-0.834-6.387-0.74-12.091-2.18-18.514c-1.687-7.522-3.413-15.215-2.165-22.95c-1.679,3.357-1.561,7.293-1.405,11.043
		c0.321,7.707,2.188,17.038,0.879,24.632c-0.968,5.617-4.083,12.075-6.662,17.138c-4.936,9.69-10.939,6.737-16.471,0.882
		c0.265,2.221,0.516,4.443,0.721,6.668c0.259,2.804,0.419,5.591,0.501,8.366c0.019,0.638,5.509,4.209,6.419,5.238
		c2.939,3.324,4.855,6.872,5.767,11.257c0.958,4.606,0.865,9.358,0.767,14.062c-0.338,16.303-5.427,30.188-8.614,46.118
		c-2.111,9.266-2.818,16.231-9.952,23.255c-3.332,3.28-6.983,6.501-11.471,7.815c-2.463,0.721-5.225,0.675-7.64-0.14
		c-0.027,1.391-0.005,2.788,0.063,4.191c2.862-0.211,5.717-0.509,8.546-0.991c1.81-0.308,3.631-0.678,5.296-1.45
		c3.191-1.479,5.57-4.313,8.669-5.974c0.417-0.224,0.888-0.431,1.351-0.328c0.856,0.191,1.134,1.245,1.292,2.108
		c1.135,6.224,4.492,12.019,9.326,16.1c-1.07-5.784-2.139-11.569-3.209-17.353c-2.153-11.644-0.681-46.846,14.945-50.185
		c24.174-5.165,9.957,39.316,10.73,52.203c0.837,13.955,4.476,28.012,12.426,39.512c0.72-10.335-3.712-20.228-6.241-30.275
		C140.38,468.407,140.544,457.245,142.024,445.868z"/>
	<path style="fill:#663403;" d="M144.594,625.367c2.566,0.767,5.176,1.633,7.869,2.527c2.484,0.825,5.049,1.461,7.645,2.021
		c0.441-2.167,0.666-4.596,1.044-7.255c1.636-11.486,0.267-19.961-3.268-30.158c-0.47-1.357-0.979-2.745-1.524-4.174
		c-2.127-5.577-3.647-11.385-4.525-17.289c-1.055-7.102-1.258-14.586-4.718-20.876c0.667,10.129,0.994,28.837-13.375,29.503
		c-12.649,0.587-11.889-13.912-13.625-22.633c-1.211-6.082-1.718-12.292-1.682-18.489c0.031-5.205,1.58-9.223,2.235-14.22
		c0.712-5.431,0.383-11.02-0.857-16.35c-1.128-4.845-4.463-9.049-5.603-13.639c2.274,9.156,4.786,23.836-2.413,31.62
		c-4.353,4.707-14.469,0.058-18.904-2.906c-1.491-0.996-2.932-2.109-4.35-3.277c0.763,4.6,1.273,9.186,1.504,13.776
		c0.028-0.001,0.056-0.006,0.084-0.006c4.028-0.07,8.017,0.702,11.972,1.471c6.561,1.276,9.685,4.55,10.77,11.144
		c1.189,7.226,2.379,14.452,3.569,21.678c1.492,9.062,1.483,17.942,0.836,27.064c-0.558,7.863-5.386,13.214-12.112,17.49
		c-5.807,3.692-12.382,5.964-18.898,8.177c-4.572,1.553-9.253,3.111-14.081,3.075c-3.57-0.027-7.07-0.927-10.526-1.822
		c-2.178-0.564-4.356-1.128-6.534-1.691c-0.016,0.025-0.035,0.046-0.05,0.071c-0.819,1.296-1.563,3.004-0.708,4.276
		c0.446,0.664,1.223,1.013,1.959,1.328c19.277,8.256,37.631,9.731,57.088,0.395c3.723-1.786,7.269-2.801,10.731-3.27
		c0.048-1.257,0.05-2.519,0.042-3.776c-0.03-4.747-0.061-9.517-0.845-14.199c-0.994-5.933-2.293-12.47-0.909-18.451
		c0.148-0.64,0.38-1.333,0.95-1.66c1.297-0.743,2.554,0.949,3.389,2.189c2.423,3.599,7.586,5.037,11.52,3.208
		c5.283-2.46,8.465-13.401,11.343-2.503c2.019,7.646,1.761,15.802-0.02,23.466C148.48,616.098,146.73,620.815,144.594,625.367z"/>
	<path style="opacity:0.9;fill:#74481C;" d="M144.183,261.938c-4.513,15.689-4.49,29.893-5.194,46.254
		c-0.261,6.069-0.732,10.676,5.833,12.203c7.066,1.644,7.453-2.839,11.3-6.347c-2.191,1.998-5.765,1.852-8.272,0.269
		c-11.018-6.956-3.617-36.301-1.093-46.679c3.298-13.563,5.83-26.987,4.143-41.044c-0.949,4.206-1.626,8.473-2.027,12.765
		C148.149,247.109,146.304,254.563,144.183,261.938z"/>
	<path style="fill:#421E01;" d="M180.555,547.818c-1.764-8.357-1.963-16.844-5.643-24.807c-4.49-9.717-10.125-20.409-11.341-31.376
		c0.87,7.846,0.994,16.332,3.096,23.91c2.02,7.283,4.194,14.287,4.326,22.019c0.109,6.356-4.448,11.12-10.013,6.146
		c-7.623-6.813-10.803-14.962-14.318-24.203c0.918,10.07,5.419,26.906,13.605,33.31c2.245,1.756,5.342,2.519,8.08,3.115
		c1.327-1.285,2.653-2.569,3.98-3.854c4.976,7.004,5.92,16.163,5.005,24.705c-0.915,8.543-3.498,16.815-4.946,25.283
		c-1.683,9.841-1.779,19.941-0.37,29.824c0.809,0.103,1.62,0.201,2.43,0.298c0.301-14.9,1.725-29.777,4.299-44.457
		C180.966,575.072,183.251,560.595,180.555,547.818z"/>
	<path style="fill:#421E01;" d="M252.822,592.333c-0.049-1.106-0.409-2.546-1.515-2.601c-1.075,2.725-1.977,5.518-2.699,8.357
		c-1.857-0.273-1.012-3.704-2.659-4.604c-0.834-0.456-1.932,0.059-2.442,0.862c-0.51,0.803-0.585,1.797-0.646,2.746
		c-0.359,5.568,0.189,23.377-10.103,18.932c-7.179-3.101-9.056-17.443-11.292-23.883c-2.471-7.117-4.653-14.334-6.542-21.626
		c-1.923-7.423-2.503-13.187-2.248-20.756c0.476-14.148-2.651-28.417-9.077-41.035c2.949,5.791,3.311,14.843,4.2,21.228
		c1.037,7.445,1.634,14.95,1.789,22.465c0.16,7.766,0.134,15.634,0.035,23.333c-0.071,5.497-0.642,12.591-7.52,13.445
		c-0.384,0.048-0.827,0.101-1.035,0.427c-0.342,0.537,0.275,1.175,0.846,1.456c4.473,2.203,8.041-0.496,11.24-3.263
		c0.597,0.261,0.666,0.661,0.803,1.264c1.749,7.7,3.266,15.13,3.713,23.119c0.413,7.401-0.04,14.654-0.329,21.962
		c1.444-0.373,2.889-0.74,4.333-1.104c0.788-4.619,2.107-9.268,5.194-10.297c2.944-0.853,4.319,1.778,6.408,3.034
		c2.596,1.56,4.54,1.832,7.612,1.084c2.626-0.64,5.56-1.438,7.892-0.071c1.221,0.716,2.071,1.943,2.632,3.243
		c0.03,0.069,0.052,0.141,0.081,0.211c3.323,0.198,6.637,0.547,9.922,1.083C250.299,622.761,253.388,604.989,252.822,592.333z"/>
	<path style="fill:#421E01;" d="M276.201,612.291c-2.33-8.058-2.177-18.33-0.394-26.464c1.202-5.483,1.411-8.94,0.427-14.489
		c-0.349-1.971-0.703-3.959-1.458-5.814c-1.508-3.708-4.482-6.59-7.375-9.356c2.292,18.243,4.411,36.464,6.433,54.747
		c0.904,8.175-0.061,14.934-1.868,22.505c2.638,0.494,5.281,0.922,7.932,1.273c0.344-4.756,1.131-9.676,5.285-11.357
		c1.704-0.689,3.628-0.592,5.383-1.137c3.842-1.193,6.165-5.319,6.494-9.328c0.329-4.009-0.93-7.959-2.173-11.785
		c-0.818,6.266-4.173,12.163-9.141,16.068c-1.018,0.8-2.195,1.549-3.49,1.521C279.186,618.611,277.306,616.113,276.201,612.291z"/>
	<path style="fill:#CC943B;" d="M91.475,153.702c4.6,7.042,6.15,14.912,8.35,22.916c0.327,1.19,0.673,2.417,1.45,3.376
		c0.574,0.709,1.357,1.234,1.89,1.975c0.9,1.253,0.966,2.947,1.802,4.244c0.645,1.001,1.684,1.668,2.69,2.304
		c3.783,2.391,7.567,4.782,11.35,7.172c0.129-9.282-9.499-14.95-11.829-23.417c-2.044-7.431-3.607-14.871-5.733-22.404
		c-2.116-7.501-7.006-2.489-10.431-5.558c-3.714-3.329-3.599-7.906-5.453-12.116c-2.216-5.029-6.349-9.701-10.416-13.31
		c-1.462-1.298-3.294-2.58-5.207-2.176c-2.855,0.602-3.646,4.518-2.579,7.234C71.971,135.689,84.721,143.361,91.475,153.702z"/>
	<path style="fill:#CC943B;" d="M87.269,178.286c-2.011-2.699-6.501-2.343-8.923-0.006c-8.403,8.107,0.603,18.506,6.491,24.348
		c2.22,2.203,5.941,4.986,9.039,7.841c2.081,1.918,3.88,3.868,4.755,5.698c1.217,2.546,1.062,5.528,1.888,8.227
		c1.178,3.85,5.128,9.148,8.161,11.692c1.084,0.027,2.169,0.055,3.253,0.082c1.79-2.089,0.728-5.417-1.112-7.463
		c-1.84-2.046-4.338-3.48-5.892-5.751c-3.042-4.444-2.967-10.903-5.808-15.821c-2.826-4.893-6.877-8.952-9.089-14.221
		C88.15,188.426,90.475,182.589,87.269,178.286z"/>
	<path style="fill:#CC943B;" d="M45.686,125.476c6.265,7.02,10.044,15.258,15.216,22.93c1.551,2.3,3.102,4.601,4.696,6.871
		c0.109,0.155,0.23,0.319,0.41,0.377c0.336,0.108,0.661-0.208,0.807-0.529c0.526-1.154-0.067-2.485-0.668-3.602
		c-2.445-4.543-3.684-9.228-7.168-13.183c-1.384-1.571-2.95-3.039-3.868-4.922c-3.367-6.91-4.649-12.409-11.222-17.857
		c-3.179-2.635-5.832-3.539-10.057-3.409c-0.506,0.016-1.047,0.043-1.452,0.346c-0.69,0.517-0.642,1.628-0.142,2.33
		c0.501,0.702,1.311,1.101,2.076,1.499C38.646,118.578,42.371,121.762,45.686,125.476z"/>
	<path style="fill:#CC943B;" d="M108.96,349.59c4.941-7.408,1.594-17.223,1.319-26.124c-0.034-1.097,0.019-2.298,0.735-3.129
		c0.557-0.647,1.406-0.939,2.179-1.303c3.542-1.669,5.974-5.464,6.013-9.379c0.061-6.23-5.04-6.119-7.012-10.105
		c-1.762-3.563,1.605-8.624,2.763-12.293c1.99-6.305,1.815-13.061,1.621-19.67c-0.092-3.132-0.329-6.608-2.592-8.774
		c-1.615,2.531-1.329,5.77-1.282,8.772c0.103,6.657-1.283,13.333-4.026,19.399C100.009,306.154,98.455,330.072,108.96,349.59z"/>
	<path style="opacity:0.8;fill:#CC943B;" d="M86.529,458.178c-1.001,1.589-2.037,3.166-2.826,4.87
		c-2.51,5.423-0.444,9.415,3.755,4.235c1.094-1.35,0.692-4.261,1.979-5.974c1.896-2.522,5.828-3.824,8.138-6.052
		c6.759-6.521,6.636-16.356,8.198-24.947c1.739-9.565,4.457-19.975,4.538-29.792c0.028-3.369,0.741-10.729-0.305-13.681
		c-0.596-1.683-2.638-5.545-3.006-0.315c-0.83,11.792-1.811,23.422-4.625,34.943C99.199,434.471,93.655,446.864,86.529,458.178z"/>
	<path style="opacity:0.6;fill:#CC943B;" d="M121.941,499.146c0.015,0.053,0.031,0.106,0.046,0.159
		c0.615,2.118,1.426,4.476,3.419,5.421c0.543,0.257,1.169,0.387,1.75,0.234c0.556-0.146,1.019-0.536,1.384-0.98
		c1.913-2.324,1.31-5.856-0.14-8.493c-1.45-2.636-3.617-4.857-4.827-7.611c-2.981-6.786-0.212-15.18-0.475-22.32
		c-0.35-9.507,0.883-15.032,4.019-24.629c1.274-3.898,4.958-19.005-3.597-16.294c-4.349,1.378-7.357,13.655-8.419,17.466
		c-2.514,9.023-1.607,20.095-0.08,29.201C116.551,480.416,119.349,490.212,121.941,499.146z"/>
	<path style="opacity:0.6;fill:#CC943B;" d="M126.261,571.521c3.359,11.027,4.334-3.785,4.088-7.295
		c-0.635-9.054-2.112-20.224,2.791-28.376c1.161-1.93,2.67-3.653,3.632-5.69c0.962-2.037,1.29-4.58,0.053-6.463
		c-1.699-2.588-5.669-2.735-8.323-1.141C117.615,529.1,123.128,561.235,126.261,571.521z"/>
	<path style="fill:#CC943B;" d="M100.64,116.733c3.393,3.393,6.673,5.763,9.358,9.704c3.313,4.862,7.431,9.331,11.106,13.928
		c0.737-6.694-4.884-12.122-9.104-17.369c-5.533-6.879-9.207-15.087-11.86-23.507c-0.744-2.36-2.016-5.232-4.49-5.257
		c-0.717-0.007-1.41,0.251-2.124,0.326c-1.914,0.201-3.683-0.906-5.45-1.67c-1.767-0.764-4.086-1.1-5.4,0.307
		C86.282,103.684,92.586,109.823,100.64,116.733z"/>
	<path style="opacity:0.6;fill:#CC943B;" d="M97.169,519.996c2.468,0.981,5.298,1.082,7.781,0.123
		c4.043-1.56,6.882-5.817,6.768-10.15c-19.344,6.28-14.475-24.159-14.496-32.534c-0.007-2.523-7.359,2.165-8.092,2.862
		c-3.861,3.678-4.802,8.798-3.266,14.13c0.576,2,1.509,3.88,2.139,5.864c1.798,5.659,1.244,12.352,5.116,16.854
		C94.209,518.415,95.618,519.38,97.169,519.996z"/>
	<path style="opacity:0.6;fill:#CC943B;" d="M82.653,599.727c2.879-4.971,5.758-9.942,8.636-14.913
		c1.76-3.04,3.536-6.113,4.563-9.472c0.999-3.265,1.262-6.703,1.519-10.108c0.593-7.854,2.386-15.493,3.904-23.213
		c0.113-0.576,0.226-1.176,0.068-1.742c-0.255-0.916-1.141-1.497-1.996-1.914c-1.897-0.924-3.982-1.461-6.089-1.565
		c-0.883,10.345-0.895,21.02-2.352,31.222C88.914,577.6,87.587,591.207,82.653,599.727z"/>
	<path style="opacity:0.6;fill:#B27720;" d="M182.426,552.85c0.403,4.672,1.047,9,1.265,11.234c0.315,3.226,0.818,6.442,0.852,9.684
		c0.073,7.042-2.063,13.889-3.553,20.772c-1.156,5.338-1.808,11.355,1.264,15.872c2.53-5.807,3.027-12.264,3.49-18.581
		c0.385-5.26,0.771-10.52,1.156-15.781c0.199-2.719,0.445-5.578,1.977-7.833c3.67-5.402,12.041,0.585,7.322-9.382
		c-3.426-7.234-5.853-17.793-11.489-23.635C181.757,537.655,181.806,545.661,182.426,552.85z"/>
	<path style="fill:#CC943B;" d="M136.771,247.677c-0.031,1.436-0.01,2.871,0.098,4.306c0.211,2.804,0.751,5.667,0.054,8.391
		c-0.49,1.915-1.555,4.024-0.541,5.721c1.411,2.36,5.503-4.324,5.694-5.664c0.222-1.563-0.261-3.128-0.689-4.647
		c-2.644-9.39-0.35-17.296,0.641-26.674c0.682-6.464,0.871-13.261-1.131-19.526c-0.963-3.013-2.439-5.984-4.496-8.41
		c-0.664-0.784-0.573-2.116-1.834-2.242c-3.783-0.379-1.047,9.568-0.567,11.099c2.664,8.507,3.838,17.478,3.453,26.384
		C137.289,240.17,136.852,243.925,136.771,247.677z"/>
	<path style="fill:#421E01;" d="M175.068,367.874c0.043,0.114,0.082,0.21,0.115,0.288c1.829,4.207,4.269,8.569,3.477,13.087
		c1.904-10.862-2.304-20.293-3.172-30.654c-0.958-11.436-0.755-23.127-1.095-34.603c-1.715,8.14-5.094,15.926-9.867,22.739
		c1.694-0.883,3.389-1.766,5.083-2.648C166.334,337.789,173.544,363.853,175.068,367.874z"/>
	<path style="fill:#421E01;" d="M194.643,460.422c-4.708-10.638-8.814-21.581-11.498-32.917
		c-3.084-13.009-2.365-26.944-3.919-40.243c-1.988,6.068-1.888,12.594-1.768,18.979c0.176,9.398,0.235,18.739,0.474,28.192
		c0.16,6.339-1.244,23.779,6.272,27.113c1.992,0.883,2.921,3.139,3.664,5.188c4.653,12.834,9.306,25.669,13.96,38.503
		C196.81,491.401,201.13,475.084,194.643,460.422z"/>
	<path style="fill:#421E01;" d="M207.589,283.111c4.107-1.667,8.043,3.671,12.473,3.435c0.079-0.004,0.151-0.027,0.228-0.035
		c-0.519-8.176-0.17-16.343,1.57-24.37c2.671-12.324,6.167-19.971,8.174-27.564c-7.49,3.707-15.493,4.596-18.798-4.396
		c-1.913-5.204-0.605-10.951-0.074-16.47c0.531-5.519-0.141-11.909-4.601-15.203c1.787,16.347,0.863,32.987-2.722,49.036
		c-0.939,4.205-1.751,8.052-2.416,11.689c-1.446,7.91-0.184,16.781-0.255,24.781c-0.079,8.883,0.929,23.593-4.744,31.134
		c-2.698,3.586-7.101,5.324-10.674,2.451c-2.633-2.118-5.735-7.165-4.883-10.687c-0.911,3.774,0.078,7.957,2.582,10.924
		c2.504,2.967,6.461,4.645,10.335,4.381c2.204-0.15,4.593-0.849,6.501,0.264c0.993,0.579,1.673,1.567,2.255,2.56
		c2.889,4.929,6.277,13.445,4.721,19.062c-1.345,4.855-6.17,8.669-5.899,13.699c2.181-4.226,5.419-7.819,7.778-11.948
		c4.851-8.49,0.776-17.1-0.374-26.121c-1.048-8.217-2.089-16.475-2.495-24.754C206.176,293.006,204.938,284.187,207.589,283.111z"/>
	<g>
		<path style="fill:#421E01;" d="M116.503,45.558c10.923,5.889,16.17,16.015,22.809,25.859c6.1,9.044,10.726,15.862,12.429,27.218
			c0.158,1.05,0.242,2.241-0.441,3.054c-0.521,0.621-1.36,0.855-2.145,1.056c-1.667,0.428-3.333,0.855-5,1.283
			c2.785,3.47,8.16,3.133,12.408,1.812c1.966-0.611,3.698-1.133,5.285-1.487c-3.492-4.275-6.611-8.534-8.204-13.263
			c-4.632-13.749-47.528-73.267-62.286-64.463c1.186,3.249,2.079,6.614,2.716,10.023c1.775,0.493,3.568,0.924,5.342,1.342
			C106.174,39.584,110.442,42.29,116.503,45.558z"/>
		<path style="fill:#421E01;" d="M152.771,132.592c1.169,3.172,2.072,6.444,2.706,9.761c0.107,0.56,0.362,1.261,0.932,1.261
			c0.079-2.521,0.158-5.042,0.237-7.563c0.034-1.074,0.067-2.15-0.025-3.22c-0.831-9.634-10.026-15.677-14.556-23.555
			c-4.91-8.542-10.163-16.91-15.322-25.316c-1.854-3.021-3.818-6.154-6.845-7.998c5.783,8.449,10.756,17.567,14.516,27.098
			c2.92,7.401,3.749,13.792,10.379,19.124c2.86,2.3,5.331,4.045,6.796,7.447C152.01,130.608,152.404,131.595,152.771,132.592z"/>
		<path style="fill:#421E01;" d="M186.625,165.65c2.83-0.701,5.58-1.707,8.211-2.964c-2.459-1.585-4.794-3.788-6.876-7.238
			c-1.183-1.96-2.199-3.999-3.135-6.076c-1.456,2.284-3.566,4.407-6.542,6.299c-2.553,1.623-5.785,0.51-8.14-0.975
			c-2.013-1.269-3.886-2.866-6.172-3.527c-1.668-0.483-3.448-0.43-5.166-0.177c2.936,3.85,6.913,6.489,9.786,10.326
			c2.894,3.865,5.297,7.505,7.035,12.07c2.983,7.836,5.965,15.673,8.948,23.51c-1.033-7.641-2.067-15.281-3.1-22.922
			c-0.312-2.306-0.505-4.986,1.153-6.618C183.673,166.328,185.2,166.003,186.625,165.65z"/>
	</g>
	<g>
		<path style="fill:#E5AD3E;" d="M87.931,88.355c-2.525,0.284-4.503,1.763-6.875,2.447c-1.62,0.467-5.679,0.53-5.215,2.855
			c0.39,1.951,3.703,4.68,4.966,6.215c0.149,0.181,0.307,0.415,0.215,0.63c-0.046,0.108-0.147,0.182-0.247,0.244
			c-1.441,0.883-3.456,0.227-4.887,1.126c-2.503-1.965-5.152-3.497-7.913-5.101c-2.234-1.298-4.723-2.644-7.261-2.159
			c-0.267,0.051-0.542,0.129-0.738,0.316c-0.24,0.23-0.316,0.576-0.44,0.884c-0.682,1.687-2.787,2.204-4.596,2.402
			c-1.809,0.198-3.887,0.451-4.89,1.969c1.085,1.817,2.17,3.635,3.255,5.452c-2.386-0.477-4.773-0.953-7.159-1.43
			c-4.765-0.951-8.244,2.129-12.714,3.26c-6.973,1.764-13.114-0.302-19.625-2.503c-2.181-0.741,9.315-9.101,10.284-9.755
			c2.075-1.401,4.509-2.586,6.441-4.173c2.702-2.22,3.826-5.476,5.586-8.371c2.316-3.808,3.569-3.516,7.975-3.503
			c0.501,0.002,1.018,0,1.479-0.194c0.606-0.255,1.032-0.806,1.387-1.36c3.724-5.802,3.508-14.749,0.756-20.815
			c-0.729-1.606-1.606-3.197-1.793-4.951c-0.33-3.094,1.52-5.952,3.289-8.512c2.069,6.102,5.479,11.745,9.919,16.414
			c1.548-10.598-0.126-21.644-4.743-31.307c-1.651-3.455-3.68-6.771-4.683-10.466c-0.311-1.145-0.512-2.401-0.041-3.491
			c0.471-1.089,1.85-1.852,2.89-1.281c0.867,0.476,1.913,3.804,2.437,4.741c0.978,1.747,2.026,3.456,3.138,5.121
			c2.284,3.42,4.842,6.665,7.687,9.637c3.893,4.067,8.152,8.297,13.285,10.742c0.285,0.136,0.597,0.267,0.908,0.213
			c0.318-0.055,0.57-0.292,0.801-0.518c1.26-1.233,2.52-2.467,3.78-3.7c0.374-0.366,0.763-0.742,1.253-0.925
			c0.949-0.355,2.064,0.084,3.002-0.298c0.755-0.307,1.212-1.07,1.553-1.81c1.216-2.641,1.633-5.644,1.184-8.516
			c-0.034-0.217-0.051-0.486,0.132-0.607c0.075-0.049,0.168-0.06,0.257-0.068c3.613-0.35,7.321,0.473,10.47,2.272
			c3.055,1.746,4.118,5.148,6.755,7.497c0.34,0.303,0.709,0.622,0.827,1.062c0.097,0.361,0.007,0.743-0.073,1.108
			c-0.751,3.419-0.398,6.708,0.159,10.116c0.544,3.332,2.831,6.958,4.297,9.972c3.167,6.514,6.646,12.927,8.817,19.866
			c0.52,1.663,0.862,3.116,0.608,4.857c-0.238,1.63-0.475,3.261-0.713,4.891c-0.265,1.817-4.575,3.432-4.223,5.02
			c1.228,5.474,2.457,10.949,3.685,16.423c-3.299-1.848-5.973-4.586-9.516-6.167c-3.742-1.67-6.513-3.497-9.153-6.704
			C100.221,92.938,94.258,87.642,87.931,88.355z"/>
		<path style="opacity:0.4;fill:#AA7135;" d="M123.117,88.847c0.238-1.63,0.475-3.261,0.713-4.891
			c0.222-1.519-0.021-2.826-0.429-4.237c-1.348-3.134-3.483-5.857-5.6-8.534c-5.37-6.791-10.74-13.582-16.109-20.373
			c-1.138-1.439-2.471-2.992-4.295-3.196c-4.194-0.47-4.816,5.441-8.768,5.778c-3.021,0.257-4.897-4.123-7.845-3.216
			c-0.965,0.297-1.705,1.237-2.714,1.273c-0.8,0.028-1.488-0.526-2.093-1.049c-4.134-3.577-8.268-7.154-12.402-10.73
			c1.647,8.391,3.295,16.781,4.942,25.172c0.439,2.237,0.811,4.789-0.577,6.598c-1.274,1.66-3.691,2.077-5.718,1.555
			c-2.027-0.522-3.76-1.803-5.437-3.057c0.806,2.39,1.612,4.779,2.418,7.169c0.266,0.788,0.535,1.612,0.411,2.434
			c-0.101,0.671-0.458,1.277-0.862,1.822c-2.883,3.887-8.005,5.165-12.354,7.288c-7.083,3.457-8.405,9.903-7.22,16.61
			c2.187-0.899,4.389-1.572,6.967-1.057c2.386,0.477,4.773,0.953,7.159,1.43c-1.085-1.817-2.17-3.635-3.255-5.452
			c1.003-1.519,3.081-1.772,4.89-1.97c1.809-0.198,3.914-0.714,4.596-2.401c0.125-0.308,0.2-0.654,0.44-0.884
			c0.196-0.188,0.471-0.265,0.738-0.316c2.537-0.485,5.027,0.861,7.26,2.159c2.761,1.604,5.411,3.136,7.913,5.101
			c1.431-0.899,3.446-0.243,4.887-1.126c0.1-0.061,0.201-0.135,0.247-0.244c0.092-0.215-0.066-0.45-0.215-0.63
			c-1.263-1.535-4.577-4.264-4.966-6.215c-0.465-2.325,3.595-2.387,5.215-2.855c2.373-0.684,4.35-2.163,6.875-2.447
			c6.327-0.713,12.29,4.584,15.978,9.064c2.64,3.207,5.411,5.034,9.153,6.704c3.543,1.581,6.217,4.319,9.516,6.167
			c-1.228-5.474-2.457-10.949-3.685-16.423C118.542,92.28,122.852,90.664,123.117,88.847z"/>
		<path style="opacity:0.4;fill:#AA7135;" d="M118.894,93.867c-0.352-1.587,3.958-3.203,4.223-5.02
			c0.238-1.63,0.475-3.261,0.713-4.891c0.254-1.742-0.088-3.195-0.608-4.858c-2.171-6.94-5.65-13.352-8.817-19.866
			c-0.524-1.079-1.154-2.238-1.771-3.432c-3.028,0.95-5.954,2.224-8.686,3.84c-2.504,1.481-5.047,3.287-7.957,3.297
			c-1.427-1.824-4.335-2.255-6.23-0.925c-1.406,0.987-2.134,2.66-2.774,4.254c-0.965,2.406-1.685,8.188-3.344,10.005
			c-3.12,3.415-3.757-1.833-5.304-1.909c-3.869-0.188-7.11,2.665-10.214,4.982c-3.104,2.318-7.375,4.271-10.691,2.269
			c-0.857-0.518-1.575-1.271-2.499-1.657c-1.433-0.599-3.08-0.207-4.534,0.338c-5.365,2.01-9.928,6.083-12.533,11.186
			c-0.513,1.005-0.988,2.093-1.896,2.763c-0.858,0.634-1.963,0.791-3,1.039c-2.949,0.706-5.675,2.316-7.717,4.558
			c-1.351,1.484-2.447,3.537-1.814,5.441c0.366,1.1,1.244,1.937,2.118,2.703c2.545,0.261,5.144,0.169,7.872-0.521
			c4.47-1.131,7.95-4.211,12.714-3.26c2.386,0.477,4.773,0.953,7.159,1.43c-1.085-1.817-2.17-3.635-3.255-5.452
			c1.003-1.519,3.081-1.772,4.89-1.97c1.809-0.198,3.914-0.714,4.596-2.401c0.125-0.308,0.2-0.654,0.44-0.884
			c0.196-0.188,0.471-0.265,0.738-0.316c2.537-0.485,5.027,0.861,7.26,2.159c2.761,1.604,5.411,3.136,7.913,5.101
			c1.431-0.899,3.446-0.243,4.887-1.126c0.1-0.061,0.201-0.135,0.247-0.244c0.092-0.215-0.066-0.45-0.215-0.63
			c-1.263-1.535-4.577-4.264-4.966-6.215c-0.465-2.325,3.595-2.387,5.215-2.855c2.373-0.684,4.35-2.163,6.875-2.447
			c6.327-0.713,12.29,4.584,15.978,9.064c2.64,3.207,5.411,5.034,9.153,6.704c0.916,0.409,1.771,0.898,2.597,1.426
			c1.911-0.138,3.815-0.361,5.711-0.641C120.545,101.227,119.719,97.547,118.894,93.867z"/>
		<path style="fill:#AA7135;" d="M119.534,92.51c-0.554-1.017-1.108-2.033-1.662-3.05c-4.939-9.064-9.932-18.207-16.685-26.014
			c6.338,12.333,12.675,24.665,19.013,36.998c-4.403-3.863-6.628-9.556-9.147-14.844c-4.307-9.045-9.89-17.481-16.532-24.981
			c7.263,11.815,13.958,23.98,20.054,36.438c-6.759-10.325-13.517-20.65-20.276-30.975c4.909,9.763,9.817,19.526,14.726,29.289
			c-9.63-13.97-19.26-27.94-28.891-41.91c8.237,13.901,17.373,27.103,26.36,40.512c2.98,4.447,6.106,8.344,9.867,12.06
			c2.085,1.416,4.02,3.025,6.218,4.257c-1.228-5.474-2.457-10.949-3.685-16.423C118.794,93.418,119.085,92.967,119.534,92.51z"/>
		<g style="opacity:0.6;">
			<path style="fill:#AA7135;" d="M47.285,76.986c-0.116,0.201-0.201,0.425-0.325,0.619c-0.034,0.054-0.08,0.1-0.116,0.153
				c4.148,5.983,8.43,11.872,12.837,17.668c0.071-0.185,0.154-0.363,0.296-0.499c0.196-0.188,0.471-0.265,0.738-0.316
				c0.058-0.011,0.116-0.009,0.174-0.018C56.354,88.724,51.819,82.855,47.285,76.986z"/>
			<path style="fill:#AA7135;" d="M61.686,94.513c1.975-0.036,3.902,0.901,5.685,1.912c-6.137-7.816-12.273-15.631-18.41-23.447
				c-0.124,0.448-0.29,0.874-0.444,1.306C52.722,81.146,57.118,87.888,61.686,94.513z"/>
			<path style="fill:#AA7135;" d="M49.553,63.702c0.068,0.564,0.115,1.126,0.146,1.698c6.957,10.967,13.915,21.934,20.872,32.901
				c1.034,0.619,2.05,1.255,3.045,1.929c-5.01-7.7-10.019-15.4-15.029-23.1C55.646,72.609,52.678,68.097,49.553,63.702z"/>
		</g>
		<g style="opacity:0.5;">
			<path style="fill:#F7CA5C;" d="M80.455,99.653c-0.067-0.133-0.133-0.267-0.2-0.4c-0.038-0.04-0.083-0.085-0.122-0.126
				C80.242,99.301,80.346,99.479,80.455,99.653z"/>
			<path style="fill:#F7CA5C;" d="M59.204,59.065c-0.03,0.225-0.04,0.452-0.073,0.676c-0.918-0.965-1.764-1.997-2.591-3.041
				c2.227,5.092,4.411,10.209,7.196,15.047c4.02,6.981,8.16,13.893,12.358,20.769c0.139-0.194,0.318-0.363,0.544-0.506
				c-3.248-6.522-6.466-13.072-9.506-19.676C64.977,67.648,62.078,63.372,59.204,59.065z"/>
		</g>
		<path style="opacity:0.5;fill:#F7CA5C;" d="M81.464,90.652c-1.479-3.058-2.943-6.122-4.36-9.201
			c-3.904-8.484-10.249-15.619-14.454-24.04c3.855,7.72,6.725,15.929,11.057,23.454c1.97,3.422,3.986,6.817,5.999,10.214
			c0.514-0.091,0.994-0.175,1.348-0.277C81.197,90.761,81.326,90.698,81.464,90.652z"/>
		<path style="opacity:0.5;fill:#F7CA5C;" d="M83.797,69.345c-2.794-6.266-5.574-12.564-8.247-18.929
			c-2.519-6-5.792-11.158-8.756-16.71c-0.231-0.238-0.461-0.475-0.689-0.713c2.373,5.754,4.604,11.655,7.32,17.097
			c4.351,8.718,8.79,17.333,13.314,25.84C85.76,73.739,84.778,71.544,83.797,69.345z"/>
		<path style="opacity:0.5;fill:#F7CA5C;" d="M90.56,76.107c-2.794-6.266-5.574-12.563-8.247-18.929
			c-2.648-6.306-6.111-11.705-9.19-17.587c-0.166-0.133-0.332-0.268-0.496-0.404c2.463,5.933,4.756,12.043,7.562,17.665
			c4.351,8.718,8.79,17.333,13.315,25.84C92.522,80.501,91.54,78.306,90.56,76.107z"/>
		<path style="opacity:0.5;fill:#F7CA5C;" d="M86.262,42.588c4.819,8.468,9.72,16.828,14.701,25.077
			c-1.098-2.136-2.198-4.274-3.297-6.416c-3.131-6.105-6.25-12.242-9.265-18.452c-0.729-1.501-1.513-2.932-2.318-4.338
			c-0.079,0.019-0.163,0.018-0.24,0.047c-0.49,0.184-0.879,0.559-1.253,0.925l-0.003,0.003
			C85.14,40.491,85.679,41.563,86.262,42.588z"/>
		<path style="opacity:0.5;fill:#F7CA5C;" d="M44.89,104.075c-2.797-3.914-5.606-7.816-8.342-11.797
			c-1.066-1.55-2.185-3.01-3.326-4.431c-0.328,0.524-0.68,1.032-1.068,1.516c0.743,1.018,1.476,2.05,2.247,3.028
			c3.096,3.928,6.211,7.822,9.341,11.687C44.118,104.054,44.5,104.052,44.89,104.075z"/>
		<g>
			<path style="fill:#F7CA5C;" d="M67.974,96.771c2.761,1.604,5.411,3.136,7.913,5.101c1.431-0.899,3.446-0.243,4.887-1.126
				c0.1-0.061,0.201-0.135,0.247-0.244c0.092-0.215-0.066-0.45-0.215-0.63c-0.681-0.827-1.951-2.003-3.044-3.215
				c-4.326-2.045-8.652-4.09-12.978-6.135c-2.794-1.321-6.452-2.525-8.675-0.377c-0.792,0.766-1.33,1.92-2.395,2.202
				c-0.966,0.256-1.962-0.332-2.96-0.28c-1.65,0.086-2.736,1.953-2.602,3.599c0.132,1.625,1.095,3.046,2.036,4.38
				c1.041-1.373,3.009-1.642,4.751-1.832c1.809-0.198,3.914-0.714,4.596-2.401c0.125-0.308,0.2-0.654,0.44-0.884
				c0.196-0.188,0.471-0.265,0.738-0.316C63.251,94.127,65.741,95.473,67.974,96.771z"/>
			<path style="fill:#F7CA5C;" d="M122.578,110.29c-1.228-5.474-2.457-10.949-3.685-16.423c-0.352-1.587,3.958-3.203,4.223-5.02
				c0.238-1.63,0.475-3.261,0.713-4.891c0.254-1.742-0.088-3.195-0.608-4.858c-2.171-6.94-5.65-13.352-8.817-19.866
				c-1.465-3.014-3.752-6.64-4.297-9.972c-0.557-3.408-0.91-6.697-0.159-10.116c0.08-0.365,0.17-0.747,0.073-1.108
				c-0.118-0.44-0.487-0.759-0.827-1.062c-1.169-1.042-2.029-2.289-2.89-3.509c-0.29,0.369-0.598,0.722-0.832,1.141
				c-1.967,3.522-1.512,7.844-0.979,11.843c1.084,8.135,2.395,16.608,7.172,23.282c1.971,2.754,4.505,5.151,5.909,8.233
				c1.405,3.081,1.284,7.269-1.454,9.262c-0.753,0.548-1.665,0.904-2.27,1.612c-2.1,2.458,1.087,6.307,0.089,9.382
				c-6.901-4.828-13.802-9.656-20.702-14.484c-0.934-0.654-1.927-1.329-3.064-1.422c-1.614-0.131-3.045,0.925-4.446,1.736
				c-3.365,1.945-7.427,2.652-11.25,1.957c-0.275,2.432,0.258,4.912,1.382,7.084c0.275-1.758,3.725-1.867,5.197-2.292
				c2.373-0.684,4.35-2.163,6.875-2.447c6.327-0.713,12.29,4.584,15.978,9.064c2.64,3.207,5.411,5.034,9.153,6.704
				C116.605,105.704,119.28,108.442,122.578,110.29z"/>
			<path style="fill:#F7CA5C;" d="M33.431,107.465c4.47-1.131,7.95-4.211,12.714-3.26c2.386,0.477,4.773,0.953,7.159,1.43
				c-1.085-1.817-2.17-3.635-3.255-5.452c0.028-0.042,0.074-0.062,0.103-0.101c-5.036-1.248-10.407-2.471-15.306-0.773
				c-4.212,1.46-7.44,4.325-12.173,3.523c-2.204-0.373-3.703-1.406-5.168-2.557c-2.605,2.189-4.754,4.33-3.699,4.689
				C20.317,107.163,26.458,109.229,33.431,107.465z"/>
		</g>
	</g>
	<path style="fill:#421E01;" d="M368.84,597.247c-8.795-11.259-15.222-24.398-21.193-37.79
		c-12.18-27.319-22.462-55.69-47.079-71.289c-8.045-5.098-17.271-8.494-24.253-14.972c-3.548-3.293-6.314-7.19-8.575-11.426
		c-0.904-1.694-1.715-3.449-2.473-5.236c-0.185-0.437-0.353-0.884-0.531-1.326c-0.545-1.35-1.065-2.713-1.55-4.094
		c-0.195-0.556-0.388-1.113-0.575-1.673c-0.453-1.354-0.887-2.715-1.301-4.081c-0.151-0.499-0.31-0.997-0.457-1.497
		c-0.525-1.777-1.034-3.556-1.529-5.321c-1.075-3.838-2.15-7.675-3.226-11.513l0,0c-8.661-30.914-17.323-61.828-25.984-92.743
		c-1.604-5.725-3.242-11.586-4.719-17.531c-1.815,5.094-0.647,12.793-1.153,16.883c-0.985,7.96-6.152,8.706-9.387,15.483
		c-2.396,5.018,1.636,12.209,2.418,17.371c0.988,6.523,1.317,14.088,1.907,20.139c0.81,8.295,3.709,16.976-2.997,23.736
		c-1.843,1.858-4.804,2.874-7.129,1.707c3.293,1.652,9.131,1.11,11.22,4.167c1.325,1.94,1.603,4.38,2.275,6.631
		c0.762,2.551,2.083,4.928,3.826,6.94c1.779,13.37,3.617,26.728,5.514,40.103c7.094-17.989,0.128-32.926-4.936-48.886
		c-1.356-13.415-1.945-26.662-1.945-40.33c-2.222-26.399,13.616-6.605,17.976,6.238c2.505,7.381,3.755,15.253,3.605,23.048
		c-0.035,1.804-3.52,21.2-4.127,20.787c2.112,1.434,5.767-1.815,7.203,0.296c0.319,0.469,0.365,1.064,0.4,1.63
		c0.465,7.361-2.322,15.068-0.73,22.37c0.21,0.962,0.428,1.873,0.646,2.741c2.44,9.703,4.937,14.086-3.41,24.628
		c5.6-0.578,10.905-3.468,14.499-7.792c0.65,0.604,1.339,1.168,2.087,1.667c5.088,3.393,10.306,6.111,15.133,10.029
		c0.976,0.792,2.045,1.964,1.584,3.133c-0.336,0.853-1.325,1.206-2.044,1.775c-2.712,2.148-0.849,6.81,2.167,8.504
		c3.016,1.694,6.702,1.787,9.801,3.325c5.037,2.501,5.136,8.211-0.027,10.334c-4.229,1.739-16.285-1.99-20.806-3.374
		c-7.322-2.242-14.064-7.057-18.848-12.99c-0.727-0.901-1.482-1.883-2.582-2.243c-0.79-0.259-1.67-0.159-2.445-0.461
		c-0.931-0.362-1.55-1.232-2.114-2.056c-2.514-3.675-5.029-7.351-7.543-11.026c2.29,2.821,0.588,16.548-3.612,14.646
		c-6.1-2.763-12.015-15.122-14.151-20.998c2.874,7.908,4.734,15.518,8.607,23.158c3.284,6.479,5.212,13.994,10.266,19.437
		c2.487,2.678,5.579,4.72,8.753,6.532c6.096,3.48,9.625,8.847,13.944,14.277c3.083,3.876,4.834,9.139,7.123,13.592
		c-0.058-4.244-0.692-8.48-1.879-12.555c-0.978-3.355-2.373-6.67-4.719-9.26c-5.211-5.752-13.708-8.101-19.502-13.454
		c-4.195-3.876-7.211-11.984-4.733-17.609c2.467-5.6,10,3.72,12.685,5.475c12.579,8.222,20.391,20.006,35.431,25.607
		c1.513,0.563,3.082,1.096,4.319,2.133c3.113,2.611,3.098,7.367,5.044,10.934c1.734,3.178,4.921,5.232,7.834,7.382
		c4.411,3.255,8.166,6.771,11.399,10.509c0.807,8.225-5.424,17.035-13.855,12.864c-8.682-4.294-10.992-18.942-15.46-26.016
		c-2.866-4.538-6.971-8.501-12.079-10.151c5.022,5.504,8.926,12.023,11.406,19.049c0.84,2.379,1.529,4.839,2.803,7.017
		c2.635,4.503,5.733,7.634,7.652,12.427c1.74,4.345,2.383,8.928,4.989,13.34c1.595,2.699,2.906,5.598,3.683,8.884
		c1.672,7.072,1.348,14.454,0.688,21.691c-0.358,3.924-2.012,10.41-1.975,16.104c9.474,0.338,18.997,0.26,28.538,0.228l0.001-0.002
		c1.326-0.003,2.65-0.011,3.976-0.011c3.143,0.327,8.66,1.213,14.933,1.957c-0.438-10.627-4.719-25.064-4.929-30.617
		c-0.314-8.316,1.237-20.47,11.34-11.482c1.976,1.758,3.459,3.816,4.605,6.055c2.674,5.224,3.514,11.433,4.503,17.111
		c0.175,1.003,0.312,2.155-0.346,2.932c-1.006,1.187-2.955,0.581-4.418,1.108c-2.202,0.792-2.573,3.698-2.571,6.038
		c0.003,3.221,0.005,6.443,0.008,9.664c11.004,0.83,22.244,0.457,26.367-4.337C391.626,623.847,375.521,605.798,368.84,597.247z
		 M308.961,628.951c-4.194-2.988,0.167-19.849-1.018-25.344c-1.585-7.352-2.597-11.753,1.299-18.067
		c3.183-5.159,7.73-6.763,8.319-13.722c0.127-1.514-0.234-3.196-0.828-4.907c8.15,12.043,11.55,26.2,12.048,42.207
		c0.037,1.188,0.028,2.382-0.117,3.559C324.333,621.209,316.844,634.567,308.961,628.951z M344.083,581.043
		c-0.246,3.818-2.407,6.643-7.67,4.924c-9.982-3.261-10.686-22.204-15.219-30.137c-4.179-7.313-11.148-12.552-16.528-19.034
		c-4.77-5.752-12.858-28.244,1.232-28.672c14.76-0.449,17.624,25.703,25.406,33.499c0.857,0.859,1.807,1.665,2.374,2.738
		c0.432,0.817,0.614,1.747,0.658,2.67c0.265,5.57-4.225,11.291-1.788,16.306c1.477,3.04,4.954,4.442,7.512,6.651
		C342.565,572.149,344.336,577.12,344.083,581.043z"/>
	<path style="opacity:0.8;fill:#805122;" d="M241.433,477.955c-1.57-12.866-3.666-26.13,3.794-37.157
		c1.203-1.778,2.36-7.915-0.593-8.308c-1.076-0.143-5.354,4.61-6,5.708c-3.456,5.867-2.927,16.419-2.323,22.916
		C236.869,467.113,240.764,472.473,241.433,477.955z"/>
	<path style="opacity:0.8;fill:#805122;" d="M226.941,377.229c0.031-1.743,0.35-3.884,1.988-4.481
		c1.159-0.422,2.49,0.226,3.24,1.205c0.751,0.979,1.053,2.219,1.337,3.42c0.943,3.99,1.888,8.163,0.909,12.144
		c-0.496,2.019-1.467,3.885-2.233,5.818c-2.313,5.842-2.532,12.022-3.171,18.178C224.808,403.407,226.75,387.88,226.941,377.229z"/>
	<path style="opacity:0.8;fill:#805122;" d="M262.98,503.206c5.786,4.04,12.626,7.874,19.531,6.421
		c-3.729-1.75-7.497-3.525-10.713-6.101c-4.631-3.712-7.342-9.582-11.715-13.612c-1.913-1.763-15.582-10.39-13.058-2.478
		C249.035,493.735,257.708,499.524,262.98,503.206z"/>
	<path style="fill:#805122;" d="M238.439,506.327c0.471,3.564,2.342,7.888,4.067,9.346c2.735,2.312,6.062,3.786,9.133,5.63
		c11.111,6.667,12.566,14.217,16.918,25.199c1.208,3.05,2.932,6.538,6.168,7.077c-1.059-5.596-2.247-11.169-3.563-16.711
		c-1.31-5.519-2.858-11.226-6.588-15.498c-2.979-3.412-7.078-5.592-10.825-8.136C251.411,511.646,236.654,492.789,238.439,506.327z"
		/>
	<path style="opacity:0.8;fill:#805122;" d="M278.267,609.949c0.794,1.048,2.451,1.092,3.573,0.408
		c1.123-0.684,1.808-1.895,2.33-3.102c0.961-2.225,1.533-4.638,1.489-7.061c-0.04-2.185-0.576-4.33-0.783-6.506
		c-0.395-4.143,1.545-7.973,1.787-12.006c0.256-4.257-1.18-8.203-2.327-12.425c-0.374-1.376-0.778-2.81-1.741-3.861
		c-0.963-1.052-2.668-1.573-3.846-0.768C281.502,577.545,269.879,598.877,278.267,609.949z"/>
	<path style="opacity:0.8;fill:#805122;" d="M298.237,568.127c2.072,1.191,3.95,0.806,5.063-2.745
		c1.455-4.641-4.435-6.528-7.087-8.461c-4.55-3.317-7.683-8.001-10.705-12.665c1.499,2.314,1.158,7.555,2.523,10.433
		C289.029,556.789,294.03,565.708,298.237,568.127z"/>
	<path style="opacity:0.8;fill:#805122;" d="M304.242,529.565c0.265,0.777,0.499,1.43,0.67,1.916
		c0.736,2.08,1.481,4.178,2.639,6.056c4.004,6.493,12.7,10.092,14.102,17.591c0.288,1.537,0.468,3.476,1.934,4.019
		c1.386,0.514,2.888-0.848,3.101-2.31c0.213-1.462-0.446-2.895-1.088-4.227c-5.418-11.24-8.101-20.185-10.52-32.282
		c-0.484-3.196-4.882-10.418-8.803-9.961C298.638,511.26,302.279,523.801,304.242,529.565z"/>
	<path style="opacity:0.8;fill:#805122;" d="M311.904,589.24c-0.603,0.886-1.152,1.799-1.556,2.781
		c-2.123,5.161,0.639,10.307,0.683,15.517c0.051,6.124-1.263,11.282,1.733,17.18c3.442-5.861,2.404-13.216,3.699-19.888
		c0.908-4.675,2.987-9.063,3.854-13.745c0.493-2.661,1.443-10.562-1.333-12.515c-0.696-0.489-1.716-0.004-2.149,0.728
		c-0.433,0.732-0.477,1.619-0.647,2.452C315.607,584.594,313.554,586.815,311.904,589.24z"/>
	<path style="fill:#805122;" d="M208.756,309.384c0.972,3.805,2.684,7.428,3.206,11.32c0.321,2.389,0.182,4.813,0.233,7.223
		c0.075,3.626,0.58,7.242,1.499,10.75c2.57-4.916,2.791-10.69,2.752-16.236c-0.038-5.269-0.261-10.536-0.669-15.79
		c-0.229-2.95-0.508-5.988,0.376-8.812c0.89-2.843,2.853-6.299-0.477-8.298c-1.4-0.837-4.554-0.981-6.068-0.461
		c-2.879,0.989-2.129,1.41-2.377,3.989C206.714,298.436,207.421,304.16,208.756,309.384z"/>
	<path style="opacity:0.7;fill:#B27720;" d="M172.072,509.043c0.491,0.028,0.739-0.577,0.818-1.062
		c1.126-6.908-3.308-12.733-3.522-19.603c-0.066-2.118,0.154-4.409,1.537-6.014c3.496-4.058-4.54-7.376-6.336-11.433
		c-3-6.778-4.581-16.178-3.852-23.53c0.097-0.98-0.117-2.383-1.101-2.336c-0.801,0.038-1.089,1.067-1.131,1.868
		c-0.305,5.726,0.639,11.867,1.457,17.534c0.894,6.19,1.433,12.613,2.578,18.681c0.536,2.839,1.536,5.566,2.532,8.278
		c1.991,5.419,3.189,12.234,6.309,17.046C171.533,508.737,171.757,509.025,172.072,509.043z"/>
</g>
</svg>
